<svg xmlns="http://www.w3.org/2000/svg" xmlns:xlink="http://www.w3.org/1999/xlink" version="1.1" x="0px" y="0px" viewBox="0 0 64 80" style="enable-background:new 0 0 64 64;" xml:space="preserve"><g><path d="M33.5,4.1h-0.7V0.8C32.8,0.4,32.4,0,32,0c-0.4,0-0.8,0.4-0.8,0.8v3.3h-0.7v2.6h3V4.1z"/><polygon points="33.6,7.9 30.4,7.9 28,16.7 36,16.7  "/><polygon points="36.5,20.6 37.1,17.8 26.9,17.8 27.5,20.6  "/><rect x="27.6" y="21.7" width="8.7" height="3.9"/><polygon points="36.5,29.5 37.1,26.9 26.9,26.9 27.5,29.5  "/><rect x="27.6" y="30.7" width="8.7" height="2.6"/><polygon points="27.4,36.7 36.6,36.7 37,34.5 27,34.5  "/><rect x="27.6" y="37.9" width="8.7" height="2.1"/><rect x="27.6" y="41.2" width="8.7" height="22.8"/></g></svg>