<svg xmlns="http://www.w3.org/2000/svg" viewBox="0 0 60 75" x="0px" y="0px"><title>Buildings - 040 - Mueseum</title><path d="M53,50H41V48H52a1.001,1.001,0,0,1,1,1ZM35,50V48h4v2Zm-8,0V39h6V50Zm-6,0V48h4v2ZM9.125,46l1.76465-15H12V46ZM14,31h1.11035L16.875,46H14Zm4.88916,15L17.09924,30.78485A2.99945,2.99945,0,0,0,19,28V27H41v1a2.99945,2.99945,0,0,0,1.90076,2.78485L41.11084,46H39V38.21973A2.98871,2.98871,0,0,0,37,33H23a2.98871,2.98871,0,0,0-2,5.21973V46H18.88916ZM49.11035,31,50.875,46H48V31ZM46,46H43.125l1.76465-15H46ZM35,46V39h2v7ZM25,46H23V39h2Zm-2-9a1,1,0,0,1,0-2H37a1,1,0,0,1,0,2H23Zm28-9a1.001,1.001,0,0,1-1,1H44a1.001,1.001,0,0,1-1-1V27h8ZM30,2.47461l27.39453,16.7168-1.543,1.543L30.52441,5.14844a.99917.99917,0,0,0-1.04883,0L4.14844,20.73438l-1.543-1.543ZM52.4668,21H7.5332L30,7.17432ZM5.61816,23H54.38184l-1,2H6.61816ZM17,27v1a1.001,1.001,0,0,1-1,1H10a1.001,1.001,0,0,1-1-1V27ZM7,49a1.001,1.001,0,0,1,1-1H19v2H7Zm51,9H2V57a1.001,1.001,0,0,1,1-1H24a1,1,0,0,0,0-2H5V53a1.02114,1.02114,0,0,1,1.03906-1H53.96094A1.02114,1.02114,0,0,1,55,53v1H36a1,1,0,0,0,0,2H57a1.001,1.001,0,0,1,1,1Z"/></svg>