<?xml version="1.0" ?>
<!DOCTYPE svg  PUBLIC '-//W3C//DTD SVG 1.1//EN'  'http://www.w3.org/Graphics/SVG/1.1/DTD/svg11.dtd'>
<!-- Uploaded to: SVG Repo, www.svgrepo.com, Generator: SVG Repo Mixer Tools -->
<svg fill="#000000" width="800px" height="800px" viewBox="0 0 250 250" style="fill-rule:evenodd;clip-rule:evenodd;stroke-linecap:round;stroke-linejoin:round;stroke-miterlimit:1.5;" version="1.1" xml:space="preserve" xmlns="http://www.w3.org/2000/svg" xmlns:serif="http://www.serif.com/" xmlns:xlink="http://www.w3.org/1999/xlink">
<g transform="matrix(0.224335,0,0,0.231033,16.4014,10.7175)">
<ellipse cx="484.091" cy="476.224" rx="261.538" ry="48.252" style="fill:rgb(51,51,51);stroke:black;stroke-width:32.94px;"/>
</g>
<g transform="matrix(0.234689,0,0,0.234689,14.0971,9.15269)">
<path d="M722.551,476.078C722.104,579.243 610.255,662.885 472.552,662.885C334.574,662.885 222.552,578.908 222.552,475.472L222.554,475.626C223.001,501.773 334.85,522.972 472.552,522.972C610.531,522.972 722.552,501.688 722.552,475.472L722.551,476.078Z" style="fill:rgb(242,13,13);"/>
</g>
<path d="M170.664,127.738C178.8,125.824 183.672,123.389 183.672,120.741L183.672,120.883C183.567,145.095 157.317,164.724 125,164.724C103.103,164.724 83.992,155.713 73.913,142.373C84.578,150.606 99.498,155.724 116,155.724C140.855,155.724 162.121,144.113 170.664,127.738Z" style="fill:rgb(195,14,14);"/>
<g transform="matrix(0.234689,0,0,0.234689,14.0971,9.15269)">
<path d="M722.551,476.078C722.104,579.243 610.255,662.885 472.552,662.885C334.574,662.885 222.552,578.908 222.552,475.472L222.554,475.626C223.001,501.773 334.85,522.972 472.552,522.972C610.531,522.972 722.552,501.688 722.552,475.472L722.551,476.078Z" style="fill:none;stroke:black;stroke-width:31.96px;"/>
</g>
<g transform="matrix(0.234689,0,0,0.234689,7.65547,26.7544)">
<path d="M344.387,547.116C356.928,554.607 370.45,561.214 384.784,566.81L335.775,915.533C334.109,927.381 323.138,935.648 311.29,933.983C299.442,932.318 291.175,921.347 292.84,909.499L343.067,552.112C343.313,550.362 343.762,548.69 344.387,547.116Z" style="fill:rgb(64,64,64);stroke:black;stroke-width:31.96px;"/>
</g>
<g transform="matrix(0.234689,0,0,0.234689,7.65547,26.7544)">
<path d="M655.612,547.115C656.237,548.688 656.687,550.361 656.933,552.112L707.16,909.499C708.825,921.347 700.558,932.318 688.71,933.983C676.862,935.648 665.891,927.381 664.225,915.533L615.216,566.809C629.546,561.214 643.065,554.609 655.612,547.115Z" style="fill:rgb(64,64,64);stroke:black;stroke-width:31.96px;"/>
</g>
<g transform="matrix(0.234689,0,0,0.234689,7.65547,-67.8253)">
<path d="M500,755.972L500,850.972" style="fill:none;stroke:black;stroke-width:31.96px;"/>
</g>
<g transform="matrix(0.234689,0,0,0.197633,21.7368,-38.0517)">
<path d="M500,755.972L500,850.972" style="fill:none;stroke:black;stroke-width:34.57px;"/>
</g>
<g transform="matrix(0.234689,0,0,0.197633,35.8182,-38.0517)">
<path d="M500,755.972L500,850.972" style="fill:none;stroke:black;stroke-width:34.57px;"/>
</g>
<g transform="matrix(0.234689,0,0,0.148225,49.8995,1.64639)">
<path d="M500,755.972L500,850.972" style="fill:none;stroke:black;stroke-width:38.21px;"/>
</g>
<g transform="matrix(-0.234689,0,0,0.197633,228.263,-38.0517)">
<path d="M500,755.972L500,850.972" style="fill:none;stroke:black;stroke-width:34.57px;"/>
</g>
<g transform="matrix(-0.234689,0,0,0.197633,214.182,-38.0517)">
<path d="M500,755.972L500,850.972" style="fill:none;stroke:black;stroke-width:34.57px;"/>
</g>
<g transform="matrix(-0.234689,0,0,0.148225,200.1,1.64639)">
<path d="M500,755.972L500,850.972" style="fill:none;stroke:black;stroke-width:38.21px;"/>
</g>
<g transform="matrix(0.234689,0,0,0.234689,7.37775,-67.8253)">
<path d="M326.183,310.306L358.391,363.985C371.692,386.153 371.692,413.847 358.391,436.015C352.931,445.114 347.069,454.886 341.609,463.985C328.308,486.153 328.308,513.847 341.609,536.015C347.069,545.114 352.931,554.886 358.391,563.985C371.692,586.153 371.692,613.847 358.391,636.015L326.183,689.694" style="fill:none;stroke:black;stroke-width:31.96px;"/>
</g>
<g transform="matrix(0.234689,0,0,0.234689,80.1314,-67.8253)">
<path d="M326.183,310.306L358.391,363.985C371.692,386.153 371.692,413.847 358.391,436.015C352.931,445.114 347.069,454.886 341.609,463.985C328.308,486.153 328.308,513.847 341.609,536.015C347.069,545.114 352.931,554.886 358.391,563.985C371.692,586.153 371.692,613.847 358.391,636.015L326.183,689.694" style="fill:none;stroke:black;stroke-width:31.96px;"/>
</g>
<g transform="matrix(0.234689,0,0,0.234689,43.7546,-67.8253)">
<path d="M326.183,310.306L358.391,363.985C371.692,386.153 371.692,413.847 358.391,436.015C352.931,445.114 347.069,454.886 341.609,463.985C328.308,486.153 328.308,513.847 341.609,536.015C347.069,545.114 352.931,554.886 358.391,563.985C371.692,586.153 371.692,613.847 358.391,636.015L326.183,689.694" style="fill:none;stroke:black;stroke-width:31.96px;"/>
</g>
</svg>