<svg xmlns="http://www.w3.org/2000/svg" data-name="Layer 1" viewBox="0 0 64 80" x="0px" y="0px"><rect x="44.672" y="17.176" width="2.268" height="3.611"/><polygon points="15.982 46.824 54.451 46.824 59.413 36.451 5.304 36.451 15.982 46.824"/><rect x="28.802" y="17.176" width="2.268" height="3.611"/><polygon points="49.963 22.788 47.939 22.788 43.672 22.788 40.004 22.788 35.736 22.788 32.069 22.788 27.802 22.788 25.07 22.788 25.07 23.874 49.963 23.874 49.963 22.788"/><rect x="36.736" y="17.176" width="2.268" height="3.611"/><path d="M53.084,33h-4.82c-.553,0-1-.448-1-1s.447-1,1-1h4.82v-1.709h-3.312c-.553,0-1-.448-1-1s.447-1,1-1h3.312v-1.417H20.127c-.022,.056-.029,.115-.061,.167l-.765,1.249h5.713c.553,0,1,.448,1,1s-.447,1-1,1h-6.938l-1.047,1.709h6.476c.553,0,1,.448,1,1s-.447,1-1,1h-7.527c-.055,0-.102-.023-.154-.031l-.908,1.482H53.084v-1.451Zm-19.353,0h-6.037c-.553,0-1-.448-1-1s.447-1,1-1h6.037c.553,0,1,.448,1,1s-.447,1-1,1Zm1.519-3.709h-6.047c-.553,0-1-.448-1-1s.447-1,1-1h6.047c.553,0,1,.448,1,1s-.447,1-1,1Zm8.824,3.709h-6.153c-.553,0-1-.448-1-1s.447-1,1-1h6.153c.553,0,1,.448,1,1s-.447,1-1,1Zm1.509-3.709h-6.144c-.553,0-1-.448-1-1s.447-1,1-1h6.144c.553,0,1,.448,1,1s-.447,1-1,1Z"/></svg>