<svg xmlns="http://www.w3.org/2000/svg" xmlns:xlink="http://www.w3.org/1999/xlink" version="1.1" x="0px" y="0px" viewBox="0 0 100 125" enable-background="new 0 0 100 100" xml:space="preserve"><path d="M56.186,49.964c0,3.389-2.744,6.133-6.134,6.133c-3.383,0-6.13-2.744-6.13-6.133c0-3.384,2.747-6.134,6.13-6.134  C53.441,43.831,56.186,46.581,56.186,49.964L56.186,49.964z M55.83,49.964c0-3.188-2.588-5.773-5.779-5.773  c-3.188,0-5.772,2.585-5.772,5.773c0,3.188,2.585,5.778,5.772,5.778C53.242,55.742,55.83,53.152,55.83,49.964L55.83,49.964z"/><path d="M55.209,49.964c0,2.844-2.309,5.151-5.158,5.151c-2.845,0-5.151-2.307-5.151-5.151c0-2.846,2.307-5.152,5.151-5.152  C52.9,44.812,55.209,47.119,55.209,49.964L55.209,49.964z M54.191,49.964c0-2.283-1.854-4.135-4.14-4.135  c-2.283,0-4.134,1.852-4.134,4.135c0,2.282,1.851,4.133,4.134,4.133C52.338,54.098,54.191,52.246,54.191,49.964L54.191,49.964z"/><path d="M53.479,49.964c0,1.893-1.535,3.424-3.427,3.424c-1.893,0-3.424-1.531-3.424-3.424c0-1.894,1.531-3.426,3.424-3.426  C51.943,46.539,53.479,48.071,53.479,49.964L53.479,49.964z M50.797,47.574c0.787,0.243,1.404,0.858,1.65,1.645  c0.408,1.325-0.328,2.727-1.65,3.141l0.105,0.338c1.51-0.469,2.352-2.07,1.881-3.58c-0.277-0.905-0.98-1.608-1.881-1.887  L50.797,47.574z M49.206,52.697l0.104-0.338c-0.789-0.248-1.404-0.863-1.646-1.65c-0.414-1.325,0.325-2.727,1.646-3.135  l-0.104-0.343c-1.511,0.468-2.354,2.076-1.887,3.585C47.6,51.715,48.307,52.418,49.206,52.697z M48.94,49.603l0.686,0.497  l-0.26,0.81l0.686-0.497l0.693,0.497l-0.267-0.81l0.689-0.497h-0.848l-0.267-0.811l-0.26,0.811H48.94z"/><path d="M96.41,57.623H3.696V42.304H96.41V57.623z M3.11,74.037h93.886V25.891H3.11V74.037z"/></svg>