<svg xmlns="http://www.w3.org/2000/svg" xmlns:xlink="http://www.w3.org/1999/xlink" version="1.1" x="0px" y="0px" viewBox="0 0 91 113.75" style="enable-background:new 0 0 91 91;" xml:space="preserve"><g><path d="M1.6,59.1c-1.4,0.3-1.3,2.4,0,2.7c1,0.3,1.9,0.5,2.9,0.7c0,4.5,0,8.9,0.1,13.4c0,3.5,0,6.9-0.1,10.4   c-0.1,1.6,1.4,2.7,2.8,2.8C19.6,90.3,32.3,90,44.8,90c11.6,0,23.2-0.1,34.8-0.2c2.4,0,4.8-0.1,7.2-0.1c4.1-0.1,4.1-6.4,0-6.4   c-0.7,0-1.4,0-2,0c0.5-2.8,0.2-5.7-0.9-8.4c-1.6-3.8-4.4-5.7-7.7-7.8c-0.7-0.5-1.7-0.2-2.3,0.3c-4.6,4-7.2,10.1-6.6,16.1   c-2.6,0-5.3,0-7.9,0.1c0.6-2.9,0.3-5.9-0.9-8.6c-1.6-3.8-4.4-5.7-7.7-7.8c-0.7-0.5-1.7-0.2-2.3,0.3c-4.6,4.1-7.2,10.1-6.6,16.2   c-2.6,0-5.1,0-7.7,0c0.6-2.9,0.3-5.9-0.9-8.7c-1.6-3.8-4.4-5.7-7.7-7.8c-0.7-0.5-1.7-0.2-2.3,0.3c-4.6,4-7.2,10.1-6.6,16.1   c-2.3,0-4.5,0-6.8,0C9.6,76.7,9.7,70,9.7,63.2c3.6,0.3,7.2,0.2,10.7,0.3c7.3,0.1,14.6,0,21.9,0.1c12.3,0.1,24.6,0.5,36.9,0.3   c2.5,0,5,0,7.4-0.1c4.1-0.1,4.1-6.4,0-6.4c-5.6,0.1-11.2,0.2-16.9,0.3c0.3-4.6,0-9.2,0-13.8c0-4.5,0.1-9.1-0.2-13.6   c0.5,0,1,0,1.6-0.1c3-0.1,3-4.8,0-4.7c-6.7,0.3-13.4,0.5-20.1,0.8c-0.1-0.3-0.3-0.5-0.5-0.8c-3.4-4.2-6.8-8.4-10.3-12.5   c-2.9-3.5-5.6-7.9-9-10.8c-3.1-2.7-8.6-1.9-12.5-1.8C13.2,0.6,7.8,0.8,2.4,0.9c-2.5,0-2.4,3.5,0,3.8C3.3,4.8,4.2,4.9,5.1,5   c-0.7,7.5-0.8,15.7-0.8,23.5c-0.8,0.1-1.6,0.2-2.5,0.3c-2.2,0.3-1.4,3.5,0.5,3.6c0.7,0,1.3,0.1,2,0.1c0,8.7,0.1,17.4,0.1,26.1   C3.5,58.7,2.5,58.9,1.6,59.1z M75.8,71.1c4.4,2.2,5.7,7.8,4.7,12.3c-3.1,0-6.1,0.1-9.2,0.1C71.2,78.8,72.7,74.9,75.8,71.1z    M50.4,71.1c4.4,2.2,5.7,8,4.6,12.5c-3,0-6.1,0-9.1,0C45.8,78.9,47.3,74.9,50.4,71.1z M25.2,71.1c4.4,2.2,5.8,8,4.6,12.6   c-0.8,0-1.6,0-2.4,0c-2.2,0-4.5,0-6.7-0.1C20.7,78.8,22.1,74.9,25.2,71.1z M23.2,58.3c-0.8,0-1.6,0-2.4,0c0.1-3.7-0.8-8.9,1.3-11.4   c1.2-1.4,2.8-2.5,4-3.7c1.2,1.6,2.6,2.9,4.2,4.3c1.6,1.4,1.2,2.8,1.1,4.9c-0.1,2-0.1,4-0.2,6C28.6,58.4,25.9,58.3,23.2,58.3z    M47.1,46.9c1.2-1.4,2.8-2.5,4-3.7c1.2,1.6,2.6,2.9,4.2,4.3c1.6,1.4,1.2,2.8,1.1,4.9c-0.1,1.9-0.1,3.8-0.2,5.7   c-3.5,0.1-7,0.1-10.5,0.2C45.9,54.6,44.9,49.4,47.1,46.9z M9.2,12.9c-0.1-2.6-0.4-5.2-0.7-7.7C11.1,5.3,21,5.4,23.3,5.6   c1.1,0.1,2.9,0,3.9,0.6c0.6,0.4,1.3,1.5,1.7,2c5,6.2,9.9,12.4,15,18.5c-2.6,0.1-25.4,0.6-34.2,1.3C9.5,22.9,9.4,17.9,9.2,12.9z    M9.7,58c0-8.4,0-16.9-0.1-25.4c9,0.1,46-1.7,55.5-2.1c-0.3,4.5-0.2,9-0.2,13.5c0,4.6-0.3,9.3,0,13.9c-1.4,0-2.9,0.1-4.3,0.1   c0-1.9,0.7-10-0.3-11.7c-0.7-1.3-2.3-2.1-3.4-3c-1.7-1.5-2.9-3.2-3.9-5.2c-0.8-1.6-3.5-1.2-3.9,0.5c-0.8,3.4-5.3,4.7-6.6,8.1   c-0.8,2.1-0.4,10-0.3,11.7c-2.2,0-4.4,0-6.5,0c0.1-2,0.7-10.4-0.3-12.1c-0.7-1.3-2.3-2.1-3.4-3c-1.7-1.5-2.9-3.2-3.9-5.2   c-0.8-1.6-3.5-1.2-3.9,0.5c-0.8,3.4-5.3,4.7-6.6,8.1c-0.8,2.1-0.4,9.9-0.3,11.6c-2.5-0.1-4.9-0.1-7.4,0C9.7,58.1,9.7,58.1,9.7,58z"/><path d="M18.8,16.3c0-1.3,0.2-2.6-0.5-3.8c-0.5-0.7-1.3-0.7-1.9-0.2c-2,1.6-1.7,6.1-1.6,8.5c0,0.7,0.4,1.5,1.1,1.8   c0.8,0.3,1.4,0.5,2.1,0c0.6-0.4,1.1-1.1,1.1-1.8C18.8,19.2,18.7,17.8,18.8,16.3z"/><path d="M27.7,12.4c-0.5-1.1-2.3-1.1-2.8,0c-0.7,1.5-0.7,3.3-0.8,4.9c-0.2,1.6-0.5,3.7,0.9,4.8c0.8,0.7,1.9,0.7,2.7,0   c1.4-1.2,1.1-3.2,0.9-4.8C28.4,15.6,28.4,13.8,27.7,12.4z"/></g></svg>