<svg xmlns="http://www.w3.org/2000/svg" xmlns:xlink="http://www.w3.org/1999/xlink" version="1.1" x="0px" y="0px" viewBox="0 0 72 90" style="enable-background:new 0 0 72 72;" xml:space="preserve"><g><path d="M67.5,66.2c-1.3-1.3-8.5-6.5-10.1-17c3.3,0.7,6.4,1.6,9.2,2.6c0.5,0.2,1.1-0.1,1.2-0.6c0.2-0.5-0.1-1.1-0.6-1.2   c-7.3-2.7-16.5-4.3-26-4.7V22.5c0-0.1,0-0.3-0.1-0.4l-4.2-7.8c0-0.1-0.1-0.2-0.2-0.2c-0.1-0.1-0.2-0.1-0.2-0.2L25.2,8.2   c-0.1-0.1-0.3-0.1-0.4-0.1c-0.1,0-0.3,0-0.4,0.1l-11.5,5.7c-0.2,0.1-0.3,0.2-0.4,0.4l-4.2,7.8c-0.1,0.1-0.1,0.3-0.1,0.5v26.2   C7,49.2,5.8,49.6,4.7,50c-0.5,0.2-0.7,0.7-0.6,1.2c0.2,0.5,0.7,0.8,1.2,0.6c2.8-1,5.9-1.9,9.2-2.6c-1.6,10.6-9.1,16-10.2,17.1   c-0.9,0.9,0.5,2.3,1.4,1.3c2.3-2.3,9.4-7.7,10.8-18.8c2-0.4,4-0.7,6.1-0.9c-0.3,9.9-4.4,16.4-5.9,18.4c-0.9,0.9,0.2,2.6,1.5,1.3   c1.4-2,6-9,6.3-19.8c2-0.2,4-0.4,6-0.4c0.3,7.3-0.3,13.9-1.7,19.5c-0.3,1.2,1.6,1.7,1.9,0.5c1.4-5.8,2-12.5,1.7-20   c2.3-0.1,4.7-0.1,7,0c-0.3,5.4-0.3,12.5,1.8,20.1c0.3,1.2,2.2,0.8,1.9-0.5c-1.9-7.3-2-14.2-1.7-19.5c2,0.1,4,0.2,6,0.4   c0.3,11.1,5.5,19.3,6.5,20.1c0.7,0.6,1.9,0,1.5-1.1c0,0,0,0,0,0c-0.4-1-5.7-7-6.1-18.7c2.1,0.2,4.1,0.6,6.1,0.9   c0.9,7.7,4.7,13.8,10.7,18.8C67.3,68.7,68.7,66.9,67.5,66.2z M24.9,14.2c1.7,0,3,1.3,3,3c0,1.7-1.3,3-3,3c-1.6,0-3-1.3-3-3   C22,15.5,23.3,14.2,24.9,14.2z M23.4,41.3L19.1,46v-9.5L23.4,41.3z M20.3,35h8.8l-4.4,4.8L20.3,35z M21.7,46l3-3.3l2.5,2.7   C25.4,45.6,23.5,45.8,21.7,46z M30.4,45.3c-0.3,0-0.5,0-0.8,0c-0.1-0.3-3.3-3.8-3.6-4l4.3-4.8V45.3z M39.4,45.2   c-2.4-0.1-4.7-0.1-7.1,0V34c0-0.5-0.5-1-1-1H18.2c-0.6,0-1,0.4-1,1v12.7c-2.4,0.4-4.8,0.9-7.1,1.6V26h29.3V45.2z"/><path d="M4.5,23.4c0.1,0.1,0.3,0.1,0.5,0.1c0.3,0,0.7-0.2,0.9-0.5l5.5-10.3l13.4-6.6l13.4,6.6l5.9,9.9c0.3,0.5,0.9,0.6,1.3,0.3   c0.5-0.3,0.6-0.9,0.3-1.3l-6-10.2c-0.1-0.2-0.2-0.3-0.4-0.4l-14.1-7c-0.3-0.1-0.6-0.1-0.9,0l-14.1,7c-0.2,0.1-0.3,0.2-0.4,0.4   L4.1,22.1C3.9,22.6,4.1,23.2,4.5,23.4z"/></g></svg>