<?xml version="1.0" encoding="utf-8"?>
<!-- Uploaded to: SVG Repo, www.svgrepo.com, Generator: SVG Repo Mixer Tools -->
<svg fill="#000000" version="1.1" id="Layer_1" xmlns="http://www.w3.org/2000/svg" xmlns:xlink="http://www.w3.org/1999/xlink" 
	 width="800px" height="800px" viewBox="0 0 260 214" enable-background="new 0 0 260 214" xml:space="preserve">
<path d="M40.89,54.55c-2.37-1.12-5.04-1.75-7.81-1.75c-2.8,0-5.47,0.63-7.85,1.75c-2.28,1.02-4.89,1.64-7.61,1.64
	s-5.29-0.62-7.61-1.64c-2.38-1.12-5.05-1.75-7.86-1.75H2v10.003h0.15c2.76,0,5.43,0.62,7.86,1.74c2.27,1.02,4.89,1.65,7.61,1.65
	s5.29-0.58,7.61-1.65c2.38-1.12,5.05-1.74,7.85-1.74c2.77,0,5.44,0.62,7.81,1.74c1.57,0.68,3.24,1.19,4.99,1.45V55.99
	C44.13,55.74,42.46,55.23,40.89,54.55z M40.89,74.55c-2.37-1.12-5.04-1.75-7.81-1.75c-2.8,0-5.47,0.63-7.85,1.75
	c-2.28,1.02-4.89,1.64-7.61,1.64s-5.29-0.62-7.61-1.64c-2.38-1.12-5.05-1.75-7.86-1.75H2v10.003h0.15c2.76,0,5.43,0.62,7.86,1.74
	c2.27,1.02,4.89,1.65,7.61,1.65s5.29-0.58,7.61-1.65c2.38-1.12,5.05-1.74,7.85-1.74c2.77,0,5.44,0.62,7.81,1.74
	c1.57,0.68,3.24,1.19,4.99,1.45V75.99C44.13,75.74,42.46,75.23,40.89,74.55z M2,115h44v97H2V115z M258,196.93
	c0,4.789-1.658,9.48-4.669,13.211c-0.988,1.224-2.435,1.859-3.894,1.859c-1.103,0-2.213-0.362-3.138-1.109
	c-2.148-1.734-2.484-4.882-0.75-7.031c1.603-1.985,2.45-4.382,2.45-6.93c0-6.065-4.935-11-11-11c-1.259,0-2.485,0.209-3.646,0.622
	c-1.585,0.563-3.348,0.292-4.69-0.725c-1.342-1.015-2.083-2.637-1.973-4.315c0.023-0.353,0.029-0.712,0.029-1.072
	c0-10.278-8.361-18.64-18.64-18.64c-2.989,0-5.859,0.701-8.454,2.034l2.07,7.519c0.733,2.663-0.831,5.415-3.493,6.147
	c-0.444,0.123-0.891,0.181-1.33,0.181c-2.194,0-4.207-1.456-4.817-3.674l-12.163-44.188c-9.514-33.838-25.489-52.947-53.405-62.574
	l-2.839-11.356c34.769,9.94,54.795,31.829,65.878,71.249l7.408,26.914c3.49-1.481,7.255-2.253,11.147-2.253
	c14.262,0,26.121,10.478,28.286,24.14c0.211-0.007,0.422-0.01,0.634-0.01C248.579,175.93,258,185.351,258,196.93z M152.458,212
	L103.024,14.06C101.247,6.932,94.346,2,87,2H56v210H152.458z M68.66,168.93l25.93-37h20.73l-16.81,24h22.42l-48.76,39.9l17.72-26.9
	H68.66z M224.892,205.708c0.879,3.159-1.477,6.292-4.756,6.292l0,0c-2.234,0-4.278-1.432-4.872-3.585
	c-1.574-5.71-6.813-9.985-13.017-9.985c-5.989,0-11.08,3.99-12.841,9.399c-0.804,2.469-3.062,4.171-5.659,4.171l0,0h-0.557
	c-2.71,0-5.075-1.836-5.748-4.461l-22.447-87.682c-3.707-14.187-12.336-26.143-23.89-34.137l-3.392-13.568
	c18.015,8.797,31.707,25.088,36.963,45.199l20.185,78.783c4.302-4.73,10.503-7.705,17.385-7.705
	C213.026,188.43,222.134,195.795,224.892,205.708z M40.89,94.569c-2.37-1.12-5.04-1.75-7.81-1.75c-2.8,0-5.47,0.63-7.85,1.75
	c-2.28,1.02-4.89,1.64-7.61,1.64s-5.29-0.62-7.61-1.64c-2.38-1.12-5.05-1.75-7.86-1.75H2v10.002h0.15c2.76,0,5.43,0.62,7.86,1.74
	c2.27,1.02,4.89,1.65,7.61,1.65s5.29-0.58,7.61-1.65c2.38-1.12,5.05-1.74,7.85-1.74c2.77,0,5.44,0.62,7.81,1.74
	c1.57,0.68,3.24,1.19,4.99,1.45V96.009C44.13,95.759,42.46,95.249,40.89,94.569z"/>
</svg>