<?xml version="1.0" encoding="iso-8859-1"?>
<!-- Uploaded to: SVG Repo, www.svgrepo.com, Generator: SVG Repo Mixer Tools -->
<svg fill="#000000" height="800px" width="800px" version="1.1" id="Layer_1" xmlns="http://www.w3.org/2000/svg" xmlns:xlink="http://www.w3.org/1999/xlink" 
	 viewBox="0 0 512 512" xml:space="preserve">
<g>
	<g>
		<path d="M114.383,147.064c-4.513,0-8.17,3.658-8.17,8.17v168.851c0,4.512,3.657,8.17,8.17,8.17s8.17-3.658,8.17-8.17V155.234
			C122.553,150.722,118.896,147.064,114.383,147.064z"/>
	</g>
</g>
<g>
	<g>
		<path d="M114.383,49.021c-4.513,0-8.17,3.658-8.17,8.17v65.362c0,4.512,3.657,8.17,8.17,8.17s8.17-3.658,8.17-8.17V57.192
			C122.553,52.679,118.896,49.021,114.383,49.021z"/>
	</g>
</g>
<g>
	<g>
		<path d="M332.255,381.277H179.745c-4.513,0-8.17,3.658-8.17,8.17c0,4.512,3.657,8.17,8.17,8.17h152.511
			c4.513,0,8.17-3.658,8.17-8.17C340.426,384.935,336.769,381.277,332.255,381.277z"/>
	</g>
</g>
<g>
	<g>
		<path d="M364.936,413.957H147.064c-4.513,0-8.17,3.658-8.17,8.17c0,4.512,3.657,8.17,8.17,8.17h217.872
			c4.513,0,8.17-3.658,8.17-8.17C373.106,417.616,369.449,413.957,364.936,413.957z"/>
	</g>
</g>
<g>
	<g>
		<path d="M332.255,446.638H179.745c-4.513,0-8.17,3.658-8.17,8.17c0,4.512,3.657,8.17,8.17,8.17h152.511
			c4.513,0,8.17-3.658,8.17-8.17C340.426,450.296,336.769,446.638,332.255,446.638z"/>
	</g>
</g>
<g>
	<g>
		<path d="M364.936,479.319H147.064c-4.513,0-8.17,3.658-8.17,8.17s3.657,8.17,8.17,8.17h217.872c4.513,0,8.17-3.658,8.17-8.17
			S369.449,479.319,364.936,479.319z"/>
	</g>
</g>
<g>
	<g>
		<path d="M147.064,446.638H8.17c-4.513,0-8.17,3.658-8.17,8.17c0,4.512,3.657,8.17,8.17,8.17h138.894c4.513,0,8.17-3.658,8.17-8.17
			C155.234,450.296,151.577,446.638,147.064,446.638z"/>
	</g>
</g>
<g>
	<g>
		<path d="M503.83,446.638H364.936c-4.513,0-8.17,3.658-8.17,8.17c0,4.512,3.657,8.17,8.17,8.17H503.83
			c4.513,0,8.17-3.658,8.17-8.17C512,450.296,508.343,446.638,503.83,446.638z"/>
	</g>
</g>
<g>
	<g>
		<path d="M471.149,479.319h-73.532c-4.513,0-8.17,3.658-8.17,8.17s3.657,8.17,8.17,8.17h73.532c4.513,0,8.17-3.658,8.17-8.17
			S475.662,479.319,471.149,479.319z"/>
	</g>
</g>
<g>
	<g>
		<path d="M114.383,479.319H40.851c-4.513,0-8.17,3.658-8.17,8.17s3.657,8.17,8.17,8.17h73.532c4.513,0,8.17-3.658,8.17-8.17
			S118.896,479.319,114.383,479.319z"/>
	</g>
</g>
<g>
	<g>
		<path d="M256,114.383c-4.513,0-8.17,3.658-8.17,8.17v157.957c0,4.512,3.657,8.17,8.17,8.17s8.17-3.658,8.17-8.17V122.553
			C264.17,118.041,260.513,114.383,256,114.383z"/>
	</g>
</g>
<g>
	<g>
		<path d="M256,49.021c-4.513,0-8.17,3.658-8.17,8.17v32.681c0,4.512,3.657,8.17,8.17,8.17s8.17-3.658,8.17-8.17V57.192
			C264.17,52.679,260.513,49.021,256,49.021z"/>
	</g>
</g>
<g>
	<g>
		<path d="M223.319,244.49c-4.513,0-8.17,3.658-8.17,8.17v32.681c0,4.512,3.657,8.17,8.17,8.17s8.17-3.658,8.17-8.17V252.66
			C231.489,248.148,227.832,244.49,223.319,244.49z"/>
	</g>
</g>
<g>
	<g>
		<path d="M223.319,81.702c-4.513,0-8.17,3.658-8.17,8.17v130.107c0,4.512,3.657,8.17,8.17,8.17s8.17-3.658,8.17-8.17V89.872
			C231.489,85.36,227.832,81.702,223.319,81.702z"/>
	</g>
</g>
<g>
	<g>
		<path d="M288.681,81.702c-4.513,0-8.17,3.658-8.17,8.17v195.468c0,4.512,3.657,8.17,8.17,8.17s8.17-3.658,8.17-8.17V89.872
			C296.851,85.36,293.194,81.702,288.681,81.702z"/>
	</g>
</g>
<g>
	<g>
		<path d="M503.83,381.277h-33.504c-3.257-15.982-15.875-28.601-31.857-31.858V65.362h65.362c4.513,0,8.17-3.658,8.17-8.17
			c0-4.512-3.657-8.17-8.17-8.17h-66.184c-3.795-18.624-20.3-32.681-40.029-32.681s-36.233,14.057-40.029,32.681h-28.878
			c-3.796-18.624-20.301-32.681-40.03-32.681h-65.362c-19.728,0-36.233,14.057-40.029,32.681h-28.878
			c-3.796-18.624-20.301-32.681-40.03-32.681S78.15,30.398,74.354,49.021H8.17c-4.513,0-8.17,3.658-8.17,8.17
			c0,4.512,3.657,8.17,8.17,8.17h65.362v284.057c-15.982,3.257-28.6,15.876-31.857,31.858H8.17c-4.513,0-8.17,3.658-8.17,8.17
			c0,4.512,3.657,8.17,8.17,8.17h138.894c4.513,0,8.17-3.658,8.17-8.17c0-19.521,15.882-35.404,35.403-35.404
			c0.307,0,0.609-0.02,0.907-0.053c0.08-0.009,0.157-0.025,0.235-0.036c0.222-0.032,0.441-0.068,0.657-0.117
			c0.086-0.02,0.171-0.044,0.256-0.066c0.207-0.053,0.41-0.113,0.61-0.183c0.085-0.029,0.169-0.06,0.253-0.093
			c0.198-0.076,0.391-0.159,0.582-0.249c0.08-0.037,0.158-0.074,0.236-0.113c0.2-0.103,0.394-0.216,0.584-0.334
			c0.06-0.037,0.122-0.071,0.182-0.11c0.245-0.162,0.483-0.336,0.708-0.523c0.029-0.024,0.057-0.052,0.085-0.077
			c0.193-0.164,0.378-0.337,0.555-0.519c0.066-0.068,0.127-0.139,0.191-0.21c0.138-0.153,0.272-0.308,0.399-0.471
			c0.029-0.037,0.063-0.07,0.091-0.108c14.046-18.696,35.488-29.418,58.832-29.418s44.786,10.723,58.831,29.417
			c0.028,0.038,0.062,0.071,0.091,0.108c0.126,0.162,0.26,0.318,0.399,0.471c0.063,0.07,0.125,0.143,0.191,0.21
			c0.176,0.182,0.362,0.354,0.555,0.519c0.029,0.025,0.056,0.053,0.085,0.077c0.225,0.187,0.463,0.361,0.708,0.523
			c0.06,0.039,0.122,0.073,0.182,0.11c0.19,0.119,0.383,0.232,0.584,0.334c0.078,0.04,0.157,0.076,0.236,0.113
			c0.191,0.09,0.383,0.174,0.582,0.249c0.084,0.032,0.168,0.063,0.253,0.093c0.2,0.069,0.403,0.129,0.61,0.183
			c0.085,0.022,0.17,0.047,0.256,0.066c0.216,0.049,0.436,0.085,0.657,0.117c0.078,0.011,0.156,0.027,0.235,0.036
			c0.298,0.033,0.6,0.053,0.907,0.053c19.521,0,35.403,15.883,35.403,35.404c0,4.512,3.657,8.17,8.17,8.17h138.894
			c4.513,0,8.17-3.658,8.17-8.17C511.999,384.934,508.343,381.277,503.83,381.277z M182.467,338.354
			c-22.001,3.506-39.424,20.922-42.928,42.923H58.598c3.373-9.509,12.454-16.34,23.104-16.34h48.216c4.513,0,8.17-3.658,8.17-8.17
			c0-4.512-3.657-8.17-8.17-8.17H89.872V57.192c0-13.516,10.996-24.511,24.511-24.511c13.515,0,24.511,10.995,24.511,24.511v276.301
			c0,4.512,3.657,8.17,8.17,8.17s8.17-3.658,8.17-8.17V65.362h27.234L182.467,338.354z M256,305.021
			c-21.29,0-41.285,7.297-57.193,20.491l0.001-268.321c0-13.516,10.996-24.511,24.511-24.511h65.362
			c13.515,0,24.511,10.995,24.511,24.511l0.001,268.321C297.285,312.318,277.291,305.021,256,305.021z M372.461,381.277
			c-3.504-22.001-20.928-39.417-42.928-42.923l-0.001-272.992h27.234v268.131c0,4.512,3.657,8.17,8.17,8.17s8.17-3.658,8.17-8.17
			V57.192c0-13.516,10.996-24.511,24.511-24.511c13.515,0,24.511,10.995,24.511,24.511v291.404h-40.046
			c-4.513,0-8.17,3.658-8.17,8.17c0,4.512,3.657,8.17,8.17,8.17h48.216c10.651,0,19.732,6.831,23.104,16.34H372.461z"/>
	</g>
</g>
<g>
	<g>
		<path d="M397.617,147.064c-4.513,0-8.17,3.658-8.17,8.17v168.851c0,4.512,3.657,8.17,8.17,8.17c4.513,0,8.17-3.658,8.17-8.17
			V155.234C405.787,150.722,402.13,147.064,397.617,147.064z"/>
	</g>
</g>
<g>
	<g>
		<path d="M397.617,49.021c-4.513,0-8.17,3.658-8.17,8.17v65.362c0,4.512,3.657,8.17,8.17,8.17c4.513,0,8.17-3.658,8.17-8.17V57.192
			C405.787,52.679,402.13,49.021,397.617,49.021z"/>
	</g>
</g>
</svg>