<svg xmlns="http://www.w3.org/2000/svg" xmlns:xlink="http://www.w3.org/1999/xlink" xmlns:serif="http://www.serif.com/" viewBox="0 0 96 120" version="1.1" xml:space="preserve" style="" x="0px" y="0px" fill-rule="evenodd" clip-rule="evenodd" stroke-linejoin="round" stroke-miterlimit="2">
	<rect x="0" y="0" width="96" height="96" style="" fill="none"/>
	<path d="M38.376,80.179l0,-34.109l17.399,-0c-0.211,10.76 -2.719,21.523 -7.53,32.286c-3.121,1.051 -6.432,1.681 -9.869,1.823Z"/>
	<path d="M35.376,80.179c-3.436,-0.142 -6.748,-0.772 -9.869,-1.823c-4.811,-10.763 -7.319,-21.526 -7.53,-32.286l17.399,-0l0,34.109Z"/>
	<path d="M1.266,46.07l13.692,-0c0.194,10.227 2.391,20.454 6.597,30.683c-11.586,-5.529 -19.728,-17.135 -20.289,-30.683Z"/>
	<path d="M68.196,61.582c-3.591,6.592 -9.202,11.926 -15.999,15.171c4.206,-10.229 6.403,-20.456 6.597,-30.683l13.692,-0c-0.092,2.23 -0.39,4.407 -0.875,6.512l-7.064,-0c-2.484,-0 -4.5,2.016 -4.5,4.5c0,2.483 2.016,4.5 4.5,4.5l3.649,-0Z"/>
	<path d="M52.198,12.385c11.588,5.532 19.727,17.137 20.288,30.685l-13.692,-0c-0.197,-10.227 -2.397,-20.455 -6.596,-30.685Z"/>
	<path d="M21.554,12.385c-4.199,10.23 -6.399,20.458 -6.596,30.685l-13.692,-0c0.561,-13.547 8.7,-25.153 20.288,-30.685Z"/>
	<path d="M38.376,8.958c3.438,0.143 6.752,0.773 9.872,1.825c4.802,10.762 7.312,21.524 7.527,32.287l-17.399,-0l0,-34.112Z"/>
	<path d="M35.376,8.958l0,34.112l-17.399,-0c0.215,-10.763 2.726,-21.525 7.527,-32.287c3.121,-1.051 6.434,-1.682 9.872,-1.825Z"/>
	<path d="M67.605,78.357l25.629,0c0.828,0 1.5,-0.672 1.5,-1.5c0,-0.828 -0.672,-1.5 -1.5,-1.5l-25.629,0l7.196,-6.035c0.634,-0.532 0.717,-1.479 0.185,-2.114c-0.532,-0.634 -1.479,-0.717 -2.113,-0.185c-0,0 -5.529,4.637 -8.506,7.135c-0.798,0.669 -1.259,1.658 -1.259,2.699c0,1.042 0.461,2.03 1.259,2.699c2.977,2.498 8.506,7.135 8.506,7.135c0.634,0.532 1.581,0.449 2.113,-0.185c0.532,-0.634 0.449,-1.581 -0.185,-2.113l-7.196,-6.036Z"/>
	<path d="M90.176,55.582l-25.629,-0c-0.828,-0 -1.5,0.672 -1.5,1.5c0,0.828 0.672,1.5 1.5,1.5l25.629,-0l-7.195,6.035c-0.634,0.532 -0.717,1.479 -0.185,2.114c0.532,0.634 1.478,0.717 2.113,0.185c-0,-0 5.528,-4.637 8.506,-7.135c0.798,-0.669 1.258,-1.658 1.258,-2.699c0,-1.042 -0.46,-2.03 -1.258,-2.699c-2.978,-2.498 -8.506,-7.135 -8.506,-7.135c-0.635,-0.532 -1.581,-0.449 -2.113,0.185c-0.532,0.634 -0.449,1.581 0.185,2.113l7.195,6.036Z"/>
	</svg>