<svg xmlns="http://www.w3.org/2000/svg" version="1.1" xmlns:xlink="http://www.w3.org/1999/xlink" xmlns:svgjs="http://svgjs.dev/svgjs" width="1000" height="189" viewBox="0 0 1000 189"><g transform="matrix(1,0,0,1,-0.6060606060606233,0.5608157916942815)"><svg viewBox="0 0 396 75" data-background-color="#ffffff" preserveAspectRatio="xMidYMid meet" height="189" width="1000" xmlns="http://www.w3.org/2000/svg" xmlns:xlink="http://www.w3.org/1999/xlink"><g id="tight-bounds" transform="matrix(1,0,0,1,0.2400000000000091,-0.22254594908503122)"><svg viewBox="0 0 395.52 75.44509189817003" height="75.44509189817003" width="395.52"><g><svg viewBox="0 0 553.7675809854101 105.63067869556933" height="75.44509189817003" width="395.52"><g><rect width="4.5454769367962005" height="91.71983678341765" x="407.4191542848068" y="6.955420956075841" fill="#ffdc00" opacity="1" stroke-width="0" stroke="transparent" fill-opacity="1" class="rect-s$-0" data-fill-palette-color="primary" rx="1%" id="s$-0" data-palette-color="#ffdc00"></rect></g><g transform="matrix(1,0,0,1,0,14.598740688027313)"><svg viewBox="0 0 395.52 76.4331973195147" height="76.4331973195147" width="395.52"><g id="textblocktransform"><svg viewBox="0 0 395.52 76.4331973195147" height="76.4331973195147" width="395.52" id="textblock"><g><svg viewBox="0 0 395.52 50.40391350584899" height="50.40391350584899" width="395.52"><g transform="matrix(1,0,0,1,0,0)"><svg width="395.52" viewBox="2.5 -35.6 282.07 35.95" height="50.40391350584899" data-palette-color="#ffdc00"><path d="M32.2-12.85Q32.6-12.85 32.75-12.68 32.9-12.5 32.9-11.95L32.9-11.95Q32.9-8.7 31.08-5.95 29.25-3.2 26.13-1.55 23 0.1 19.25 0.1L19.25 0.1Q15 0.1 11.2-1.58 7.4-3.25 4.95-6.95 2.5-10.65 2.5-16.45L2.5-16.45Q2.5-22.2 4.83-26.58 7.15-30.95 10.95-33.27 14.75-35.6 19.05-35.6L19.05-35.6Q22.25-35.6 24.88-34.13 27.5-32.65 29.45-29.9L29.45-29.9 29.4-34.6Q29.4-34.95 29.63-35.15 29.85-35.35 30.2-35.35L30.2-35.35Q30.6-35.35 30.83-35.18 31.05-35 31.05-34.65L31.05-34.65 31.05-28.15Q31.05-27.8 30.8-27.58 30.55-27.35 30.2-27.35L30.2-27.35Q29.85-27.35 29.63-27.45 29.4-27.55 29.15-27.9L29.15-27.9Q26.95-31.05 24.6-32.55 22.25-34.05 19.05-34.05L19.05-34.05Q15.25-34.05 11.78-31.78 8.3-29.5 6.18-25.48 4.05-21.45 4.05-16.45L4.05-16.45Q4.05-11.3 6.28-7.93 8.5-4.55 11.95-3 15.4-1.45 19.25-1.45L19.25-1.45Q22.35-1.45 25.15-2.88 27.95-4.3 29.68-6.73 31.4-9.15 31.4-11.95L31.4-11.95Q31.4-12.35 31.63-12.6 31.85-12.85 32.2-12.85L32.2-12.85ZM49.5 0Q44.35 0 40.62-2.8 36.9-5.6 36.9-12.3L36.9-12.3Q36.9-16.25 38.35-19.28 39.8-22.3 42.57-24.03 45.35-25.75 49.3-25.75L49.3-25.75Q52.95-25.75 55.87-24.23 58.8-22.7 60.47-19.7 62.15-16.7 62.15-12.5L62.15-12.5Q62.15-6.25 58.62-3.13 55.1 0 49.5 0L49.5 0ZM49.45-1.55Q52.45-1.55 54.97-2.75 57.5-3.95 59.05-6.43 60.6-8.9 60.6-12.55L60.6-12.55Q60.6-16.1 59.15-18.73 57.7-21.35 55.12-22.78 52.55-24.2 49.35-24.2L49.35-24.2Q46.1-24.2 43.62-22.75 41.15-21.3 39.8-18.63 38.45-15.95 38.45-12.45L38.45-12.45Q38.45-8.45 40.1-6.03 41.75-3.6 44.22-2.58 46.7-1.55 49.45-1.55L49.45-1.55ZM80.2-25.35Q84.2-25.35 86.17-22.5 88.15-19.65 88.15-13.55L88.15-13.55 88.15-1.1Q88.15-0.15 87.4-0.15L87.4-0.15Q86.6-0.15 86.6-1.05L86.6-1.05 86.6-13.6Q86.6-18.9 85.12-21.38 83.65-23.85 79.95-23.85L79.95-23.85Q76.75-23.85 74.82-21.73 72.9-19.6 72-14.2L72-14.2Q71.55-11.5 71.55-8.7L71.55-8.7 71.6-0.7Q71.6-0.1 70.85-0.1L70.85-0.1Q70.05-0.1 70.05-0.7L70.05-0.7Q69.95-6.45 69.85-9.45L69.85-9.45Q69.8-11.25 69.75-14.38 69.7-17.5 69.7-19.9L69.7-19.9Q69.7-20.9 69.5-21.45 69.3-22 68.85-22.8L68.85-22.8Q68.75-22.95 68.3-23.7L68.3-23.7Q68.15-23.95 68.15-24.2L68.15-24.2Q68.15-24.55 68.47-24.75 68.8-24.95 69.1-24.95L69.1-24.95Q69.45-24.95 69.8-24.4L69.8-24.4Q71.3-22.05 71.3-19.9L71.3-19.9 71.3-17.8Q72-21.05 74.22-23.2 76.45-25.35 80.2-25.35L80.2-25.35ZM104.54-0.5Q103.09-0.5 101.24-3.68 99.39-6.85 97.74-11.5L97.74-11.5Q96.44-15.15 95.54-18.75 94.64-22.35 94.64-23.85L94.64-23.85Q94.64-24.5 94.84-24.75 95.04-25 95.44-25L95.44-25Q95.79-25 95.92-24.8 96.04-24.6 96.14-24.1L96.14-24.1Q96.49-21.55 97.12-18.9 97.74-16.25 99.14-12.3L99.14-12.3Q100.64-8.05 102.22-5.05 103.79-2.05 104.49-2.05L104.49-2.05Q105.19-2.05 106.77-4.93 108.34-7.8 110.14-12.25L110.14-12.25Q111.79-16.35 112.49-19.1 113.19-21.85 113.44-24.3L113.44-24.3Q113.49-25.25 114.19-25.25L114.19-25.25Q114.94-25.25 114.94-24.05L114.94-24.05Q114.94-22.45 114.02-19 113.09-15.55 111.64-11.75L111.64-11.75Q109.84-6.95 107.92-3.73 105.99-0.5 104.54-0.5L104.54-0.5ZM132.99 0Q128.89 0 126.07-1.8 123.24-3.6 121.84-6.5 120.44-9.4 120.44-12.65L120.44-12.65Q120.44-16.05 121.94-19 123.44-21.95 126.29-23.78 129.14-25.6 133.04-25.6L133.04-25.6Q136.39-25.6 138.99-24.23 141.59-22.85 143.04-20.48 144.49-18.1 144.49-15.1L144.49-15.1Q144.49-13.85 144.19-13.45 143.89-13.05 142.79-13.05L142.79-13.05 121.99-12.45Q121.99-9.5 123.32-7 124.64-4.5 127.17-3.03 129.69-1.55 133.04-1.55L133.04-1.55Q135.59-1.55 137.37-2.38 139.14-3.2 140.14-4.25 141.14-5.3 142.39-7.05L142.39-7.05Q142.54-7.25 142.84-7.25L142.84-7.25Q143.19-7.25 143.49-7.03 143.79-6.8 143.79-6.45L143.79-6.45Q143.79-6.2 143.49-5.8L143.49-5.8Q141.84-3.3 139.52-1.65 137.19 0 132.99 0L132.99 0ZM121.99-13.95L142.69-14.6Q142.89-14.6 142.97-14.7 143.04-14.8 143.04-15.2L143.04-15.2Q143.04-17.7 141.77-19.7 140.49-21.7 138.24-22.88 135.99-24.05 133.19-24.05L133.19-24.05Q129.79-24.05 127.24-22.43 124.69-20.8 123.34-18.43 121.99-16.05 121.99-13.95L121.99-13.95ZM162.54-25.35Q166.54-25.35 168.51-22.5 170.49-19.65 170.49-13.55L170.49-13.55 170.49-1.1Q170.49-0.15 169.74-0.15L169.74-0.15Q168.94-0.15 168.94-1.05L168.94-1.05 168.94-13.6Q168.94-18.9 167.46-21.38 165.99-23.85 162.29-23.85L162.29-23.85Q159.09-23.85 157.16-21.73 155.24-19.6 154.34-14.2L154.34-14.2Q153.89-11.5 153.89-8.7L153.89-8.7 153.94-0.7Q153.94-0.1 153.19-0.1L153.19-0.1Q152.39-0.1 152.39-0.7L152.39-0.7Q152.29-6.45 152.19-9.45L152.19-9.45Q152.14-11.25 152.09-14.38 152.04-17.5 152.04-19.9L152.04-19.9Q152.04-20.9 151.84-21.45 151.64-22 151.19-22.8L151.19-22.8Q151.09-22.95 150.64-23.7L150.64-23.7Q150.49-23.95 150.49-24.2L150.49-24.2Q150.49-24.55 150.81-24.75 151.14-24.95 151.44-24.95L151.44-24.95Q151.79-24.95 152.14-24.4L152.14-24.4Q153.64-22.05 153.64-19.9L153.64-19.9 153.64-17.8Q154.34-21.05 156.56-23.2 158.79-25.35 162.54-25.35L162.54-25.35ZM179.69-29.75Q178.79-29.75 178.14-30.38 177.49-31 177.49-31.9L177.49-31.9Q177.49-32.85 178.14-33.52 178.79-34.2 179.79-34.2L179.79-34.2Q180.74-34.2 181.34-33.58 181.94-32.95 181.94-31.95L181.94-31.95Q181.94-30.95 181.26-30.35 180.59-29.75 179.69-29.75L179.69-29.75ZM178.89-0.3Q178.09-0.3 178.09-1.05L178.09-1.05 178.59-24.2Q178.59-25.2 179.39-25.2L179.39-25.2Q179.79-25.2 179.99-24.98 180.19-24.75 180.19-24.2L180.19-24.2 179.64-1.1Q179.64-0.3 178.89-0.3L178.89-0.3ZM200.53 0Q195.38 0 191.66-2.8 187.93-5.6 187.93-12.3L187.93-12.3Q187.93-16.25 189.38-19.28 190.83-22.3 193.61-24.03 196.38-25.75 200.33-25.75L200.33-25.75Q203.98-25.75 206.91-24.23 209.83-22.7 211.51-19.7 213.18-16.7 213.18-12.5L213.18-12.5Q213.18-6.25 209.66-3.13 206.13 0 200.53 0L200.53 0ZM200.48-1.55Q203.48-1.55 206.01-2.75 208.53-3.95 210.08-6.43 211.63-8.9 211.63-12.55L211.63-12.55Q211.63-16.1 210.18-18.73 208.73-21.35 206.16-22.78 203.58-24.2 200.38-24.2L200.38-24.2Q197.13-24.2 194.66-22.75 192.18-21.3 190.83-18.63 189.48-15.95 189.48-12.45L189.48-12.45Q189.48-8.45 191.13-6.03 192.78-3.6 195.26-2.58 197.73-1.55 200.48-1.55L200.48-1.55ZM233.48-6.9Q233.93-6.9 234.11-6.63 234.28-6.35 234.28-5.6L234.28-5.6Q234.28-3.4 232.83-1.7 231.38 0 229.03 0L229.03 0Q222.83 0 222.83-13.7L222.83-13.7Q222.83-16.5 223.18-20.6L223.18-20.6Q220.33-20.8 218.78-20.95L218.78-20.95Q218.43-21 218.31-21.2 218.18-21.4 218.18-21.75L218.18-21.75Q218.18-22.15 218.41-22.35 218.63-22.55 218.93-22.5L218.93-22.5Q221.83-22.2 223.33-22.15L223.33-22.15Q223.78-26.85 224.63-32.65L224.63-32.65Q224.68-33.1 224.88-33.3 225.08-33.5 225.43-33.5L225.43-33.5Q225.78-33.5 226-33.3 226.23-33.1 226.18-32.65L226.18-32.65Q225.28-26.4 224.88-22.05L224.88-22.05Q226.48-22 229.88-22L229.88-22Q230.73-22 230.73-21.2L230.73-21.2Q230.73-20.5 229.88-20.5L229.88-20.5 227.78-20.45Q226.83-20.45 224.73-20.55L224.73-20.55Q224.38-16.2 224.38-13.45L224.38-13.45Q224.38-8.2 225.43-4.88 226.48-1.55 229.08-1.55L229.08-1.55Q230.48-1.55 231.61-2.55 232.73-3.55 232.73-5.85L232.73-5.85Q232.73-6.35 232.88-6.63 233.03-6.9 233.48-6.9L233.48-6.9ZM259.23-4.8Q259.23-3.8 259.45-3.18 259.68-2.55 260.03-2.02 260.38-1.5 260.38-1.25L260.38-1.25Q260.38-0.95 260.13-0.7 259.88-0.45 259.58-0.45L259.58-0.45Q258.93-0.45 258.3-1.7 257.68-2.95 257.63-4.55L257.63-4.55 257.58-7.2Q256.63-3.95 254.3-2.02 251.98-0.1 248.73-0.1L248.73-0.1Q244.68-0.1 242.73-2.93 240.78-5.75 240.78-11.5L240.78-11.5 240.78-24.35Q240.78-25.05 241.53-25.05L241.53-25.05Q241.88-25.05 242.1-24.88 242.33-24.7 242.33-24.35L242.33-24.35 242.33-11.4Q242.33-6.4 243.85-4.03 245.38-1.65 248.68-1.65L248.68-1.65Q253.43-1.65 255.43-5.93 257.43-10.2 257.43-16.8L257.43-16.8 257.43-24.5Q257.43-25.35 258.18-25.35L258.18-25.35Q258.98-25.35 258.98-24.5L258.98-24.5 259.23-4.8ZM278.07-25.5Q281.43-25.5 283-23.53 284.57-21.55 284.57-18.9L284.57-18.9Q284.57-16.3 283.18-14.98 281.77-13.65 279.82-13.65L279.82-13.65Q279.23-13.65 279-13.83 278.77-14 278.77-14.4L278.77-14.4Q278.77-14.8 278.98-14.98 279.18-15.15 279.57-15.2L279.57-15.2Q281.07-15.35 282.05-16.03 283.02-16.7 283.02-18.85L283.02-18.85Q283.02-20.85 281.93-22.4 280.82-23.95 278.02-23.95L278.02-23.95Q274.38-23.95 272.57-20.7 270.77-17.45 270.32-11.4L270.32-11.4Q270.13-8.7 270.13-3.5L270.13-3.5 270.13-0.7Q270.13 0.35 269.32 0.35L269.32 0.35Q268.93 0.35 268.75 0.13 268.57-0.1 268.57-0.65L268.57-0.65 268.48-11.3Q268.43-16.55 267.73-24.25L267.73-24.25 267.63-25.35 267.63-25.45Q267.63-25.8 267.88-26 268.13-26.2 268.48-26.2L268.48-26.2Q269.23-26.2 269.23-25.35L269.23-25.35 269.73-16.35Q270.23-21.1 272.5-23.3 274.77-25.5 278.07-25.5L278.07-25.5Z" opacity="1" transform="matrix(1,0,0,1,0,0)" fill="#ffdc00" class="undefined-text-0" data-fill-palette-color="primary" id="text-0"></path></svg></g></svg></g><g transform="matrix(1,0,0,1,163.310208,62.303067790655795)"><svg viewBox="0 0 232.209792 14.130129528858898" height="14.130129528858898" width="232.209792"><g transform="matrix(1,0,0,1,0,0)"><svg width="232.209792" viewBox="1 -38.1 829.81 50.5" height="14.130129528858898" data-palette-color="#ffdc00"><path d="M23.4-1.4L23.4 0 10.7 0 10.7-1.4 12.3-1.4Q13.8-1.4 14.3-2 14.8-2.6 14.8-3.6L14.8-3.6 14.8-14.5 7.4-29.3Q5.35-33.6 2.1-33.6L2.1-33.6 1-33.6 1-35 12.3-35 12.3-33.6 11.7-33.6Q10.9-33.6 10.9-33.1 10.9-32.6 11.5-31.5L11.5-31.5 17.8-18.1 24.2-31.5Q24.8-32.7 24.8-33L24.8-33Q24.8-33.6 23.3-33.6L23.3-33.6 22-33.6 22-35 32.1-35 32.1-33.6 31.3-33.6Q27.55-33.6 25.9-30.1L25.9-30.1 19.1-16.5 19.1-3.6Q19.1-2.6 19.6-2 20.1-1.4 21.6-1.4L21.6-1.4 23.4-1.4ZM41.3 0.7L41.3 0.7Q36.9 0.7 33.95-2.6 31-5.9 31-10.3L31-10.3Q31-15.9 35.22-19.95 39.45-24 44.15-24 48.85-24 51.72-20.68 54.6-17.35 54.6-13L54.6-13Q54.6-7.55 50.57-3.43 46.55 0.7 41.3 0.7ZM34.5-13Q34.5-8.35 37.32-5.28 40.15-2.2 43.67-2.2 47.2-2.2 49.2-4.85 51.2-7.5 51.2-10.3L51.2-10.3Q51.2-14.55 48.57-17.73 45.95-20.9 42.2-20.9 38.45-20.9 36.47-18.38 34.5-15.85 34.5-13L34.5-13ZM82.8-1.4L82.8 0 75.59 0 75.59-5.9Q74.45-2.75 72.05-1.03 69.65 0.7 66.2 0.7L66.2 0.7Q64.4 0.7 63.15-0.1 61.9-0.9 61.35-2.15L61.35-2.15Q60.4-4.3 60.4-6.4L60.4-6.4 60.4-18.3Q60.4-20.6 57.5-20.6L57.5-20.6 57.5-22Q58.5-22 60.52-22.55 62.55-23.1 63.5-23.7L63.5-23.7 64.4-23.8 64.4-7.3Q64.4-5.05 65.47-3.88 66.55-2.7 68.5-2.7L68.5-2.7Q71.3-2.7 73.45-5.7 75.59-8.7 75.59-10.2L75.59-10.2 75.59-18.3Q75.59-20.6 72.7-20.6L72.7-20.6 72.7-22Q73.8-22 75.82-22.55 77.84-23.1 78.8-23.7L78.8-23.7 79.7-23.8 79.7-3.4Q79.7-2.7 79.8-2.35L79.8-2.35Q80.05-1.4 81.9-1.4L81.9-1.4 82.8-1.4ZM97.49-1.4L97.49 0 86.69 0 86.69-1.4 87.49-1.4Q88.84-1.4 89.22-1.85 89.59-2.3 89.59-3.3L89.59-3.3 89.59-18.3Q89.59-19.25 88.97-19.68 88.34-20.1 86.69-20.1L86.69-20.1 86.69-21.5Q87.69-21.5 89.72-22.23 91.74-22.95 92.79-23.6L92.79-23.6 93.69-23.8 93.69-17.6Q95.49-21.55 97.79-22.83 100.09-24.1 104.59-24.1L104.59-24.1 104.29-18.3 102.79-18.3Q102.79-19 102.27-19.65 101.74-20.3 100.59-20.3L100.59-20.3Q98.09-20.3 95.89-17.6 93.69-14.9 93.69-12.4L93.69-12.4 93.69-3.6Q93.69-2.8 93.77-2.45 93.84-2.1 94.34-1.75 94.84-1.4 95.89-1.4L95.89-1.4 97.49-1.4ZM137.79-1.4L137.79 0 124.79 0 124.79-1.4 126.79-1.4Q128.29-1.4 128.69-1.98 129.09-2.55 129.09-3.6L129.09-3.6 129.09-30.6Q129.09-31.35 128.99-31.78 128.89-32.2 128.36-32.55 127.84-32.9 126.79-32.9L126.79-32.9 123.79-32.9Q121.14-32.9 119.71-31.28 118.29-29.65 118.19-27.8L118.19-27.8 116.79-28.1 117.29-35 145.39-35 145.89-28.1 144.49-27.8Q144.39-29.6 142.94-31.25 141.49-32.9 138.89-32.9L138.89-32.9 135.89-32.9Q134.79-32.9 134.24-32.52 133.69-32.15 133.59-31.75 133.49-31.35 133.49-30.6L133.49-30.6 133.49-3.6Q133.49-2.9 133.59-2.5 133.69-2.1 134.24-1.75 134.79-1.4 135.89-1.4L135.89-1.4 137.79-1.4ZM157.49-1.4L157.49 0 146.69 0 146.69-1.4 147.49-1.4Q148.84-1.4 149.21-1.85 149.59-2.3 149.59-3.3L149.59-3.3 149.59-18.3Q149.59-19.25 148.96-19.68 148.34-20.1 146.69-20.1L146.69-20.1 146.69-21.5Q147.69-21.5 149.71-22.23 151.74-22.95 152.79-23.6L152.79-23.6 153.69-23.8 153.69-17.6Q155.49-21.55 157.79-22.83 160.09-24.1 164.59-24.1L164.59-24.1 164.29-18.3 162.79-18.3Q162.79-19 162.26-19.65 161.74-20.3 160.59-20.3L160.59-20.3Q158.09-20.3 155.89-17.6 153.69-14.9 153.69-12.4L153.69-12.4 153.69-3.6Q153.69-2.8 153.76-2.45 153.84-2.1 154.34-1.75 154.84-1.4 155.89-1.4L155.89-1.4 157.49-1.4ZM188.23-1.4L188.23 0 181.03 0 181.03-4Q178.53-1.3 176.88-0.3 175.23 0.7 172.41 0.7 169.58 0.7 168.01-0.63 166.43-1.95 166.43-4.35 166.43-6.75 168.51-9.03 170.58-11.3 173.36-12.48 176.13-13.65 178.23-14.28 180.33-14.9 181.03-14.9L181.03-14.9 181.03-16Q181.03-20.7 177.13-20.7L177.13-20.7Q174.43-20.7 172.11-19.55 169.78-18.4 168.63-16.6L168.63-16.6 167.63-17.5Q170.98-24 179.23-24L179.23-24Q181.33-24 182.71-22.88 184.08-21.75 184.56-20.25 185.03-18.75 185.03-16.9L185.03-16.9 185.03-3.4Q185.03-2.75 185.13-2.4 185.23-2.05 185.76-1.73 186.28-1.4 187.33-1.4L187.33-1.4 188.23-1.4ZM181.03-6.8L181.03-6.8 181.03-12.9Q177.13-12.15 173.78-9.9 170.43-7.65 170.43-5L170.43-5Q170.43-3.95 171.46-3.18 172.48-2.4 174.01-2.4 175.53-2.4 177.63-3.78 179.73-5.15 181.03-6.8ZM200.98 0.5L200.18 0.7 192.58-19.6Q192.13-20.75 191.61-21.28 191.08-21.8 189.98-21.8L189.98-21.8 189.28-21.8 189.28-23.3 198.58-23.3 198.48-21.8 197.98-21.8Q196.48-21.8 196.48-20.9L196.48-20.9Q196.48-20.3 196.58-20.1L196.58-20.1 202.18-5.4 207.88-19.8Q208.28-20.6 208.28-21.05 208.28-21.5 207.75-21.65 207.23-21.8 205.38-21.8L205.38-21.8 204.78-21.8 204.78-23.3 214.18-23.3 214.18-21.8 213.78-21.8Q212.18-21.8 211.5-21.3 210.83-20.8 210.28-19.4L210.28-19.4 203.68-2.5Q203.28-2.5 202.13-1.18 200.98 0.15 200.98 0.5L200.98 0.5ZM234.83-6.1L234.83-6.1 235.73-5.2Q232.53 0.7 224.23 0.7L224.23 0.7Q220.38 0.7 217.65-2.7 214.93-6.1 214.93-10.3L214.93-10.3Q214.93-15.95 218.6-19.98 222.28-24 227.53-24L227.53-24Q230.03-24 231.93-22.55L231.93-22.55Q235.33-19.9 235.33-15.7L235.33-15.7Q235.33-15.1 235.1-14.25 234.88-13.4 234.73-13.4L234.73-13.4 218.63-12.9Q218.63-9 221.08-5.7 223.53-2.4 227.03-2.4L227.03-2.4Q229.53-2.4 231.65-3.43 233.78-4.45 234.83-6.1ZM219.13-14.9L219.13-14.9 230.83-15.4Q230.93-15.4 230.93-16.3L230.93-16.3Q230.93-18.9 229.4-20 227.88-21.1 225.2-21.1 222.53-21.1 220.83-19.45 219.13-17.8 219.13-14.9ZM249.53-1.4L249.53 0 239.53 0 239.53-1.4 240.22-1.4Q241.32-1.4 241.82-1.88 242.32-2.35 242.32-3.5L242.32-3.5 242.32-33Q242.32-33.95 241.68-34.38 241.03-34.8 239.43-34.8L239.43-34.8 239.43-36.2Q240.43-36.2 242.5-36.75 244.57-37.3 245.53-37.9L245.53-37.9 246.43-38.1 246.43-3.6Q246.43-2.8 246.5-2.45 246.57-2.1 247.07-1.75 247.57-1.4 248.63-1.4L248.63-1.4 249.53-1.4ZM299.07-1.4L299.07 0 286.27 0 286.27-1.4 287.87-1.4Q290.07-1.4 290.07-2.8L290.07-2.8Q290.07-3 289.57-4.5L289.57-4.5 286.17-13.4 273.57-13.4 270.27-4.9Q270.27-4.8 269.92-3.68 269.57-2.55 269.57-2.13 269.57-1.7 270.12-1.55 270.67-1.4 272.47-1.4L272.47-1.4 273.27-1.4 273.27 0 263.47 0 263.47-1.4 264.17-1.4Q265.82-1.4 266.57-1.98 267.32-2.55 267.87-3.9L267.87-3.9 278.87-32.6Q279.12-32.65 279.77-33.33 280.42-34 280.97-34.73 281.52-35.45 281.52-35.55 281.52-35.65 281.47-35.7L281.47-35.7 282.17-35.9 294.47-3.7Q295.02-2.55 295.6-1.98 296.17-1.4 297.27-1.4L297.27-1.4 299.07-1.4ZM274.37-15.5L285.27-15.5 279.87-29.8 274.37-15.5ZM308.77-2.6L308.77-2.6 313.77-2.8Q319.47-2.8 321.67-1.58 323.87-0.35 323.87 2.35 323.87 5.05 322.32 7.05 320.77 9.05 318.27 10.2L318.27 10.2Q313.32 12.4 307.67 12.4L307.67 12.4Q304.37 12.4 302.32 10.83 300.27 9.25 300.27 6.9L300.27 6.9Q300.27 1.4 304.97-0.2L304.97-0.2Q303.82-0.2 303.09-0.7 302.37-1.2 302.37-1.83 302.37-2.45 302.57-3.05 302.77-3.65 303.22-4.28 303.67-4.9 303.99-5.28 304.32-5.65 305.07-6.4L305.07-6.4 306.07-7.4Q303.37-9.8 303.37-13.93 303.37-18.05 306.47-21.08 309.57-24.1 313.27-24.1L313.27-24.1Q315.57-24.1 317.37-22.8L317.37-22.8Q319.47-25.2 324.37-25.2L324.37-25.2 323.87-20.9Q323.57-21.35 322.82-21.78 322.07-22.2 321.67-22.2L321.67-22.2Q320.32-22.2 318.87-21.3L318.87-21.3Q320.77-19.1 320.77-16L320.77-16Q320.77-12.1 317.77-9.05 314.77-6 310.97-6L310.97-6Q309.02-6 307.77-6.7L307.77-6.7Q305.67-4.2 305.67-3.6L305.67-3.6Q305.67-2.6 308.77-2.6ZM311.27-0.1L311.27-0.1 307.77-0.1Q306.22 0.85 305.72 1.35 305.22 1.85 304.87 2.3 304.52 2.75 304.27 3.2L304.27 3.2Q303.77 4.25 303.77 5.55 303.77 6.85 304.97 7.8L304.97 7.8Q307.02 9.3 310.69 9.3 314.37 9.3 317.52 8.05 320.67 6.8 320.67 4.6 320.67 2.4 318.12 1.15 315.57-0.1 311.27-0.1ZM306.57-15.68Q306.57-13 308.44-10.95 310.32-8.9 312.67-8.9 315.02-8.9 316.29-10.38 317.57-11.85 317.57-14.33 317.57-16.8 315.74-19 313.92-21.2 311.47-21.2 309.02-21.2 307.79-19.78 306.57-18.35 306.57-15.68ZM346.07-6.1L346.07-6.1 346.97-5.2Q343.77 0.7 335.47 0.7L335.47 0.7Q331.62 0.7 328.89-2.7 326.17-6.1 326.17-10.3L326.17-10.3Q326.17-15.95 329.84-19.98 333.52-24 338.77-24L338.77-24Q341.27-24 343.17-22.55L343.17-22.55Q346.57-19.9 346.57-15.7L346.57-15.7Q346.57-15.1 346.34-14.25 346.12-13.4 345.97-13.4L345.97-13.4 329.87-12.9Q329.87-9 332.32-5.7 334.77-2.4 338.27-2.4L338.27-2.4Q340.77-2.4 342.89-3.43 345.02-4.45 346.07-6.1ZM330.37-14.9L330.37-14.9 342.07-15.4Q342.17-15.4 342.17-16.3L342.17-16.3Q342.17-18.9 340.64-20 339.12-21.1 336.44-21.1 333.77-21.1 332.07-19.45 330.37-17.8 330.37-14.9ZM376.36-1.4L376.36 0 367.76 0 367.76-1.4 367.96-1.4Q368.51-1.4 368.89-1.95 369.26-2.5 369.26-3.3L369.26-3.3 369.26-16Q369.26-18.25 368.19-19.43 367.11-20.6 365.16-20.6L365.16-20.6Q362.36-20.6 360.21-17.6 358.06-14.6 358.06-13.1L358.06-13.1 358.06-3.6Q358.06-2.8 358.14-2.45 358.21-2.1 358.71-1.75 359.21-1.4 360.26-1.4L360.26-1.4 361.16-1.4 361.16 0 351.06 0 351.06-1.4 351.86-1.4Q353.21-1.4 353.59-1.85 353.96-2.3 353.96-3.3L353.96-3.3 353.96-18.3Q353.96-19.25 353.34-19.68 352.71-20.1 351.06-20.1L351.06-20.1 351.06-21.5Q352.06-21.5 354.09-22.23 356.11-22.95 357.16-23.6L357.16-23.6 358.06-23.8 358.06-17.4Q359.21-20.55 361.61-22.28 364.01-24 367.46-24L367.46-24Q369.26-24 370.51-23.2 371.76-22.4 372.31-21.15L372.31-21.15Q373.26-19 373.26-16.9L373.26-16.9 373.26-3.4Q373.26-2.7 373.36-2.35L373.36-2.35Q373.61-1.4 375.46-1.4L375.46-1.4 376.36-1.4ZM399.46-6.1L399.46-6.1 400.36-5.2Q397.16 0.7 388.86 0.7L388.86 0.7Q385.01 0.7 382.29-2.7 379.56-6.1 379.56-10.3L379.56-10.3Q379.56-13 380.89-15.73 382.21-18.45 383.64-20.08 385.06-21.7 387.54-22.85 390.01-24 392.76-24 395.51-24 398.46-22.9L398.46-22.9 398.16-18.3 396.66-18.3Q396.66-19.6 395.04-20.45 393.41-21.3 391.41-21.3 389.41-21.3 387.81-20.68 386.21-20.05 385.39-19.15 384.56-18.25 384.06-17L384.06-17Q383.26-15.15 383.26-12.9L383.26-12.9Q383.26-9 385.71-5.7 388.16-2.4 391.66-2.4L391.66-2.4Q394.16-2.4 396.29-3.43 398.41-4.45 399.46-6.1ZM400.96 11.6L400.96 11.6 401.76 7.7 402.46 7.7Q402.56 8.25 403.36 8.93 404.16 9.6 405.06 9.6L405.06 9.6Q408.16 9.6 409.46 7.5 410.76 5.4 412.16-0.1L412.16-0.1 404.56-19.8Q404.11-20.85 403.61-21.33 403.11-21.8 402.06-21.8L402.06-21.8 401.36-21.8 401.36-23.3 411.16-23.3 411.16-21.8 410.86-21.8Q408.76-21.8 408.76-20.6L408.76-20.6Q408.76-20.35 409.26-19L409.26-19 414.36-5.4 419.96-19.5Q420.56-20.7 420.56-21L420.56-21Q420.56-21.45 419.98-21.63 419.41-21.8 417.66-21.8L417.66-21.8 417.26-21.8 417.26-23.3 426.56-23.3 426.56-21.8 426.06-21.8Q424.36-21.8 423.71-21.3 423.06-20.8 422.56-19.4L422.56-19.4 412.46 5.9Q411.11 9.2 409.23 10.8 407.36 12.4 404.16 12.4L404.16 12.4Q402.96 12.4 400.96 11.6ZM453.85-1.4L453.85 0 441.15 0 441.15-1.4 442.85-1.4Q444.35-1.4 444.8-2 445.25-2.6 445.25-3.7L445.25-3.7 445.25-31.3Q445.25-32.4 444.8-33 444.35-33.6 442.85-33.6L442.85-33.6 441.15-33.6 441.15-35 453.85-35 453.85-33.6 451.95-33.6Q450.45-33.6 450-33 449.55-32.4 449.55-31.3L449.55-31.3 449.55-3.7Q449.55-2.6 450-2 450.45-1.4 451.95-1.4L451.95-1.4 453.85-1.4ZM483.35-1.4L483.35 0 474.75 0 474.75-1.4 474.95-1.4Q475.5-1.4 475.88-1.95 476.25-2.5 476.25-3.3L476.25-3.3 476.25-16Q476.25-18.25 475.18-19.43 474.1-20.6 472.15-20.6L472.15-20.6Q469.35-20.6 467.2-17.6 465.05-14.6 465.05-13.1L465.05-13.1 465.05-3.6Q465.05-2.8 465.13-2.45 465.2-2.1 465.7-1.75 466.2-1.4 467.25-1.4L467.25-1.4 468.15-1.4 468.15 0 458.05 0 458.05-1.4 458.85-1.4Q460.2-1.4 460.58-1.85 460.95-2.3 460.95-3.3L460.95-3.3 460.95-18.3Q460.95-19.25 460.33-19.68 459.7-20.1 458.05-20.1L458.05-20.1 458.05-21.5Q459.05-21.5 461.08-22.23 463.1-22.95 464.15-23.6L464.15-23.6 465.05-23.8 465.05-17.4Q466.2-20.55 468.6-22.28 471-24 474.45-24L474.45-24Q476.25-24 477.5-23.2 478.75-22.4 479.3-21.15L479.3-21.15Q480.25-19 480.25-16.9L480.25-16.9 480.25-3.4Q480.25-2.7 480.35-2.35L480.35-2.35Q480.6-1.4 482.45-1.4L482.45-1.4 483.35-1.4ZM512.35-1.4L512.35 0 499.65 0 499.65-1.4 501.25-1.4Q502.35-1.4 502.9-1.78 503.45-2.15 503.55-2.55 503.65-2.95 503.65-3.7L503.65-3.7 503.65-31.3Q503.65-32.55 503.15-33.08 502.65-33.6 501.25-33.6L501.25-33.6 499.65-33.6 499.65-35 526.35-35 526.85-27.9 525.45-27.7Q525.35-29.55 523.9-31.23 522.45-32.9 519.85-32.9L519.85-32.9 510.45-32.9Q509.35-32.9 508.8-32.55 508.25-32.2 508.15-31.8 508.05-31.4 508.05-30.7L508.05-30.7 508.05-19.6 517.75-19.6Q518.5-19.6 518.9-19.7L518.9-19.7Q519.95-19.95 519.95-21.6L519.95-21.6 519.95-24 521.45-24 521.45-13.3 519.95-13.3 519.95-15.5Q519.95-16.8 519.4-17.15 518.85-17.5 517.75-17.5L517.75-17.5 508.05-17.5 508.05-3.7Q508.05-2.95 508.15-2.55 508.25-2.15 508.8-1.78 509.35-1.4 510.45-1.4L510.45-1.4 512.35-1.4ZM537.24 0.7L537.24 0.7Q532.84 0.7 529.89-2.6 526.94-5.9 526.94-10.3L526.94-10.3Q526.94-15.9 531.17-19.95 535.39-24 540.09-24 544.79-24 547.67-20.68 550.54-17.35 550.54-13L550.54-13Q550.54-7.55 546.52-3.43 542.49 0.7 537.24 0.7ZM530.44-13Q530.44-8.35 533.27-5.28 536.09-2.2 539.62-2.2 543.14-2.2 545.14-4.85 547.14-7.5 547.14-10.3L547.14-10.3Q547.14-14.55 544.52-17.73 541.89-20.9 538.14-20.9 534.39-20.9 532.42-18.38 530.44-15.85 530.44-13L530.44-13ZM573.34-5.4L572.54 0 552.44 0 552.44-1.1 566.34-20.2Q566.84-20.7 566.84-21.2L566.84-21.2 562.34-21.2Q558.89-21.2 557.11-20.15 555.34-19.1 555.24-17.7L555.24-17.7 554.04-17.9 554.74-23.3 572.94-23.3 572.94-22.2 559.04-3.3 558.54-2.3 564.94-2.3Q568.59-2.3 570.21-3.25 571.84-4.2 571.94-5.6L571.94-5.6 573.34-5.4ZM606.53-32.2L598.23-31.7 598.23-4.5Q601.13-2.8 606.13-2.8L606.13-2.8Q612.08-2.8 616.63-6.05L616.63-6.05Q618.93-7.7 620.28-10.65 621.63-13.6 621.63-17.32 621.63-21.05 620.16-23.95 618.68-26.85 616.33-28.6L616.33-28.6Q611.58-32.2 606.53-32.2L606.53-32.2ZM589.83-35L597.53-35 609.93-35.5Q616.88-35.5 620.91-31 624.93-26.5 624.93-18.98 624.93-11.45 619.16-5.73 613.38 0 605.63 0L605.63 0 589.83 0 589.83-1.5 591.53-1.5Q593.03-1.5 593.48-2.05 593.93-2.6 593.93-3.7L593.93-3.7 593.93-31.3Q593.93-32.45 593.46-32.98 592.98-33.5 591.53-33.5L591.53-33.5 589.83-33.5 589.83-35ZM638.43 0.7L638.43 0.7Q634.03 0.7 631.08-2.6 628.13-5.9 628.13-10.3L628.13-10.3Q628.13-15.9 632.36-19.95 636.58-24 641.28-24 645.98-24 648.86-20.68 651.73-17.35 651.73-13L651.73-13Q651.73-7.55 647.71-3.43 643.68 0.7 638.43 0.7ZM631.63-13Q631.63-8.35 634.46-5.28 637.28-2.2 640.81-2.2 644.33-2.2 646.33-4.85 648.33-7.5 648.33-10.3L648.33-10.3Q648.33-14.55 645.71-17.73 643.08-20.9 639.33-20.9 635.58-20.9 633.61-18.38 631.63-15.85 631.63-13L631.63-13ZM680.33-1.4L680.33 0 667.63 0 667.63-1.4 669.33-1.4Q670.83-1.4 671.28-2 671.73-2.6 671.73-3.7L671.73-3.7 671.73-31.3Q671.73-32.4 671.28-33 670.83-33.6 669.33-33.6L669.33-33.6 667.63-33.6 667.63-35 680.33-35 680.33-33.6 678.43-33.6Q676.93-33.6 676.48-33 676.03-32.4 676.03-31.3L676.03-31.3 676.03-3.7Q676.03-2.6 676.48-2 676.93-1.4 678.43-1.4L678.43-1.4 680.33-1.4ZM691.52-2.6L691.52-2.6 696.52-2.8Q702.22-2.8 704.42-1.58 706.62-0.35 706.62 2.35 706.62 5.05 705.07 7.05 703.52 9.05 701.02 10.2L701.02 10.2Q696.07 12.4 690.42 12.4L690.42 12.4Q687.12 12.4 685.07 10.83 683.02 9.25 683.02 6.9L683.02 6.9Q683.02 1.4 687.72-0.2L687.72-0.2Q686.57-0.2 685.85-0.7 685.12-1.2 685.12-1.83 685.12-2.45 685.32-3.05 685.52-3.65 685.97-4.28 686.42-4.9 686.75-5.28 687.07-5.65 687.82-6.4L687.82-6.4 688.82-7.4Q686.12-9.8 686.12-13.93 686.12-18.05 689.22-21.08 692.32-24.1 696.02-24.1L696.02-24.1Q698.32-24.1 700.12-22.8L700.12-22.8Q702.22-25.2 707.12-25.2L707.12-25.2 706.62-20.9Q706.32-21.35 705.57-21.78 704.82-22.2 704.42-22.2L704.42-22.2Q703.07-22.2 701.62-21.3L701.62-21.3Q703.52-19.1 703.52-16L703.52-16Q703.52-12.1 700.52-9.05 697.52-6 693.72-6L693.72-6Q691.77-6 690.52-6.7L690.52-6.7Q688.42-4.2 688.42-3.6L688.42-3.6Q688.42-2.6 691.52-2.6ZM694.02-0.1L694.02-0.1 690.52-0.1Q688.97 0.85 688.47 1.35 687.97 1.85 687.62 2.3 687.27 2.75 687.02 3.2L687.02 3.2Q686.52 4.25 686.52 5.55 686.52 6.85 687.72 7.8L687.72 7.8Q689.77 9.3 693.45 9.3 697.12 9.3 700.27 8.05 703.42 6.8 703.42 4.6 703.42 2.4 700.87 1.15 698.32-0.1 694.02-0.1ZM689.32-15.68Q689.32-13 691.2-10.95 693.07-8.9 695.42-8.9 697.77-8.9 699.05-10.38 700.32-11.85 700.32-14.33 700.32-16.8 698.5-19 696.67-21.2 694.22-21.2 691.77-21.2 690.55-19.78 689.32-18.35 689.32-15.68ZM733.82-1.4L733.82 0 726.62 0 726.62-5.9Q725.47-2.75 723.07-1.03 720.67 0.7 717.22 0.7L717.22 0.7Q715.42 0.7 714.17-0.1 712.92-0.9 712.37-2.15L712.37-2.15Q711.42-4.3 711.42-6.4L711.42-6.4 711.42-18.3Q711.42-20.6 708.52-20.6L708.52-20.6 708.52-22Q709.52-22 711.55-22.55 713.57-23.1 714.52-23.7L714.52-23.7 715.42-23.8 715.42-7.3Q715.42-5.05 716.5-3.88 717.57-2.7 719.52-2.7L719.52-2.7Q722.32-2.7 724.47-5.7 726.62-8.7 726.62-10.2L726.62-10.2 726.62-18.3Q726.62-20.6 723.72-20.6L723.72-20.6 723.72-22Q724.82-22 726.85-22.55 728.87-23.1 729.82-23.7L729.82-23.7 730.72-23.8 730.72-3.4Q730.72-2.7 730.82-2.35L730.82-2.35Q731.07-1.4 732.92-1.4L732.92-1.4 733.82-1.4ZM759.32-1.4L759.32 0 752.12 0 752.12-4Q749.62-1.3 747.97-0.3 746.32 0.7 743.49 0.7 740.67 0.7 739.09-0.63 737.52-1.95 737.52-4.35 737.52-6.75 739.59-9.03 741.67-11.3 744.44-12.48 747.22-13.65 749.32-14.28 751.42-14.9 752.12-14.9L752.12-14.9 752.12-16Q752.12-20.7 748.22-20.7L748.22-20.7Q745.52-20.7 743.19-19.55 740.87-18.4 739.72-16.6L739.72-16.6 738.72-17.5Q742.07-24 750.32-24L750.32-24Q752.42-24 753.79-22.88 755.17-21.75 755.64-20.25 756.12-18.75 756.12-16.9L756.12-16.9 756.12-3.4Q756.12-2.75 756.22-2.4 756.32-2.05 756.84-1.73 757.37-1.4 758.42-1.4L758.42-1.4 759.32-1.4ZM752.12-6.8L752.12-6.8 752.12-12.9Q748.22-12.15 744.87-9.9 741.52-7.65 741.52-5L741.52-5Q741.52-3.95 742.54-3.18 743.57-2.4 745.09-2.4 746.62-2.4 748.72-3.78 750.82-5.15 752.12-6.8ZM763.22-1.4L763.22-1.4 763.72-6.8 765.12-6.7Q765.12-5 767.32-3.45 769.52-1.9 772.07-1.9L772.07-1.9Q777.32-1.9 777.32-5.1L777.32-5.1Q777.32-6.7 775.97-7.95 774.62-9.2 772.72-10.03 770.82-10.85 768.92-11.73 767.02-12.6 765.67-14.03 764.32-15.45 764.32-17.3L764.32-17.3Q764.32-23.8 773.92-23.8L773.92-23.8Q776.07-23.8 778.62-22.6L778.62-22.6 778.32-17.6 777.12-17.6Q777.12-19 775.49-20.3 773.87-21.6 771.97-21.6 770.07-21.6 768.74-20.85 767.42-20.1 767.42-18.63 767.42-17.15 768.77-16.2 770.12-15.25 772.02-14.65 773.92-14.05 775.82-13.3 777.72-12.55 779.07-10.85 780.42-9.15 780.42-6.6 780.42-4.05 778.77-2.35L778.77-2.35Q775.82 0.7 770.22 0.7L770.22 0.7Q765.87 0.7 763.22-1.4ZM784.71-1.4L784.71-1.4 785.21-6.8 786.61-6.7Q786.61-5 788.81-3.45 791.01-1.9 793.56-1.9L793.56-1.9Q798.81-1.9 798.81-5.1L798.81-5.1Q798.81-6.7 797.46-7.95 796.11-9.2 794.21-10.03 792.31-10.85 790.41-11.73 788.51-12.6 787.16-14.03 785.81-15.45 785.81-17.3L785.81-17.3Q785.81-23.8 795.41-23.8L795.41-23.8Q797.56-23.8 800.11-22.6L800.11-22.6 799.81-17.6 798.61-17.6Q798.61-19 796.99-20.3 795.36-21.6 793.46-21.6 791.56-21.6 790.24-20.85 788.91-20.1 788.91-18.63 788.91-17.15 790.26-16.2 791.61-15.25 793.51-14.65 795.41-14.05 797.31-13.3 799.21-12.55 800.56-10.85 801.91-9.15 801.91-6.6 801.91-4.05 800.26-2.35L800.26-2.35Q797.31 0.7 791.71 0.7L791.71 0.7Q787.36 0.7 784.71-1.4ZM830.81-1.4L830.81 0 823.61 0 823.61-5.9Q822.46-2.75 820.06-1.03 817.66 0.7 814.21 0.7L814.21 0.7Q812.41 0.7 811.16-0.1 809.91-0.9 809.36-2.15L809.36-2.15Q808.41-4.3 808.41-6.4L808.41-6.4 808.41-18.3Q808.41-20.6 805.51-20.6L805.51-20.6 805.51-22Q806.51-22 808.54-22.55 810.56-23.1 811.51-23.7L811.51-23.7 812.41-23.8 812.41-7.3Q812.41-5.05 813.49-3.88 814.56-2.7 816.51-2.7L816.51-2.7Q819.31-2.7 821.46-5.7 823.61-8.7 823.61-10.2L823.61-10.2 823.61-18.3Q823.61-20.6 820.71-20.6L820.71-20.6 820.71-22Q821.81-22 823.84-22.55 825.86-23.1 826.81-23.7L826.81-23.7 827.71-23.8 827.71-3.4Q827.71-2.7 827.81-2.35L827.81-2.35Q828.06-1.4 829.91-1.4L829.91-1.4 830.81-1.4Z" opacity="1" transform="matrix(1,0,0,1,0,0)" fill="#ffdc00" class="undefined-text-1" data-fill-palette-color="secondary" id="text-1"></path></svg></g></svg></g></svg></g></svg></g><g transform="matrix(1,0,0,1,423.8637855064098,0)"><svg viewBox="0 0 129.90379547900025 105.63067869556933" height="105.63067869556933" width="129.90379547900025"><g><svg version="1.1" xmlns="http://www.w3.org/2000/svg" xmlns:xlink="http://www.w3.org/1999/xlink" x="0" y="0" viewBox="0 0.0002883044585872026 99.99897666262994 81.3137116955414" enable-background="new 0 0 100 81.314" xml:space="preserve" width="129.90379547900025" height="105.63067869556933" class="icon-icon-0" data-fill-palette-color="accent" id="icon-0"><path fill="#ffdc00" d="M39.74 2.399l-0.255-1.1c1.479-0.344 2.989-0.619 4.49-0.83l0.158 1.121C42.664 1.793 41.185 2.068 39.74 2.399z" data-fill-palette-color="accent"></path><path fill="#ffdc00" d="M61.917 2.333c-1.442-0.328-2.919-0.587-4.403-0.777l0.15-1.122c1.515 0.195 3.027 0.464 4.497 0.795L61.917 2.333z" data-fill-palette-color="accent"></path><path fill="#ffdc00" d="M48.589 1.184l-0.053-1.129c1.524-0.071 3.071-0.071 4.572-0.011l-0.042 1.132C51.574 1.114 50.075 1.114 48.589 1.184z" data-fill-palette-color="accent"></path><path fill="#ffdc00" d="M7.252 77.205c0.784 1.306 1.633 2.586 2.525 3.809l0.914-0.669c-0.872-1.192-1.704-2.441-2.473-3.722L7.252 77.205z" data-fill-palette-color="accent"></path><path fill="#ffdc00" d="M3.267 68.983c0.54 1.431 1.146 2.845 1.806 4.199l1.015-0.493c-0.642-1.324-1.236-2.707-1.766-4.102L3.267 68.983z" data-fill-palette-color="accent"></path><path fill="#ffdc00" d="M0.826 60.179c0.275 1.498 0.617 2.999 1.022 4.455l1.09-0.301c-0.396-1.427-0.731-2.893-1-4.358L0.826 60.179z" data-fill-palette-color="accent"></path><path fill="#ffdc00" d="M1.13 51.082H0c0.002 1.518 0.073 3.054 0.21 4.569l1.125-0.102C1.2 54.065 1.131 52.564 1.13 51.082z" data-fill-palette-color="accent"></path><path fill="#ffdc00" d="M1.906 42.183l-1.113-0.2c-0.264 1.493-0.467 3.015-0.6 4.535l1.125 0.096C1.449 45.129 1.645 43.637 1.906 42.183z" data-fill-palette-color="accent"></path><path fill="#ffdc00" d="M4.255 33.562l-1.059-0.393c-0.533 1.435-1.005 2.896-1.402 4.349l1.091 0.299C3.274 36.398 3.736 34.967 4.255 33.562z" data-fill-palette-color="accent"></path><path fill="#ffdc00" d="M8.117 25.509l-0.972-0.577c-0.776 1.302-1.502 2.658-2.16 4.031l1.019 0.485C6.647 28.111 7.358 26.781 8.117 25.509z" data-fill-palette-color="accent"></path><path fill="#ffdc00" d="M9.661 21.114l0.915 0.662c0.871-1.202 1.807-2.379 2.782-3.5l-0.853-0.743C11.506 18.677 10.55 19.885 9.661 21.114z" data-fill-palette-color="accent"></path><path fill="#ffdc00" d="M19.088 11.207c-1.179 0.943-2.336 1.959-3.433 3.01l0.782 0.821c1.075-1.034 2.207-2.031 3.357-2.949L19.088 11.207z" data-fill-palette-color="accent"></path><path fill="#ffdc00" d="M86.074 14.006c-1.095-1.042-2.256-2.048-3.447-2.998l-0.707 0.888c1.172 0.926 2.305 1.911 3.379 2.93L86.074 14.006z" data-fill-palette-color="accent"></path><path fill="#ffdc00" d="M27.234 7.137l-0.54-0.989c-1.324 0.715-2.641 1.509-3.916 2.357l0.628 0.936C24.651 8.614 25.939 7.842 27.234 7.137z" data-fill-palette-color="accent"></path><path fill="#ffdc00" d="M78.917 8.329c-1.266-0.831-2.585-1.616-3.935-2.336L74.454 6.99C75.764 7.69 77.059 8.46 78.3 9.272L78.917 8.329z" data-fill-palette-color="accent"></path><path fill="#ffdc00" d="M35.434 3.599l-0.354-1.072c-1.455 0.477-2.894 1.024-4.272 1.621l0.446 1.038C32.604 4.601 34.013 4.071 35.434 3.599z" data-fill-palette-color="accent"></path><path fill="#ffdc00" d="M70.862 4.023c-1.392-0.586-2.834-1.125-4.288-1.593l-0.345 1.077c1.423 0.455 2.831 0.981 4.191 1.559L70.862 4.023z" data-fill-palette-color="accent"></path><path fill="#ffdc00" d="M99.129 26.774l-2.716-2.711 1.117-9.237-1.241-1.23-3.197 7.139-1.85-1.846c-0.161-0.163-0.379-0.287-0.609-0.361l0.624-3.083-0.992-0.993-1.476 3.457-3.455 1.474 0.989 0.994 3.087-0.624c0.075 0.229 0.199 0.446 0.362 0.61l1.85 1.85-7.144 3.201 1.227 1.236 9.245-1.112 2.707 2.711c0.5 0.507 1.162 0.816 1.873 0.867 0.124 0 0.247-0.036 0.339-0.124 0.084-0.089 0.138-0.211 0.129-0.335C99.946 27.94 99.636 27.278 99.129 26.774z" data-fill-palette-color="accent"></path><path fill="#ffdc00" d="M51.09 15.112c-18.253 0-33.101 14.848-33.101 33.101 0 18.251 14.848 33.101 33.101 33.101 18.251 0 33.101-14.85 33.101-33.101C84.191 29.96 69.341 15.112 51.09 15.112zM78.073 53.609c0.601 0.607 0.87 1.167 0.991 1.774C75.867 67.848 64.537 77.089 51.09 77.089c-4.979 0-9.666-1.267-13.759-3.494 0.041-0.179 0.081-0.361 0.121-0.555 0.244-1.177 2.063-1.742 2.844-2.521 0.761-0.762 2.275-1.223 2.745-2.219 0.308-0.653-0.128-1.49 0.134-2.099 0.199-0.458 0.958-0.957 1.314-1.314 0.894-0.894 1.564-3.22 1.564-4.442-1.338 0-2.675 0-4.012 0-1.267 0-1.021-1.498-1.026-2.429-0.001-0.5 0.031-1.111-0.212-1.568-0.277-0.52-1.174-0.368-1.655-0.612-0.837-0.425-1.531-1.257-1.695-2.192-0.108-0.613-0.086-1.062-0.857-1.032-0.758 0.032-1.462 0.639-2.167 0.639-0.885 0-1.77 0-2.655 0-1.957 0-3.914 0-5.869 0 0 0.317-0.18 1.349 0.109 1.494 0.723 0.36 1.445 0.722 2.167 1.083 1.078 0.54 1.394 1.889 1.921 2.941 0.518 1.036 1.105 2.054 1.559 3.116 0.562 1.314 0.97 2.777 1.993 3.833 0.431 0.445 1.267 0.354 1.45 0.967 0.232 0.77-0.007 1.71-0.184 2.468-0.196 0.839-0.442 1.668-0.659 2.502-5.966-4.296-10.229-10.807-11.581-18.319 0.402-0.031 0.805-0.085 1.039-0.085 0.78 0 0.804-0.058 1.369-0.621 0.495-0.495 0.817-0.642 0.817-1.324 0-0.79 0-1.583 0-2.372 0.96 0.479 1.918 0.96 2.878 1.438 0.042-1.163 0.873-1.312 1.831-1.473 1.138-0.188 1.887-1.405 2.941-1.405 0.869 0 1.23 0.166 2.046 0.43 0.428 0.141 0.965 0.304 1.412 0.165 0.601-0.188 0.459-1.261 0.667-1.743 0.299-0.697 0.754-1.683 1.56-1.75 0.876-0.07 2.012-0.465 1.056-1.419-1.049-1.049-1.833-2.387-2.542-3.68-0.303-0.555-0.379-1.43-0.89-1.813-1.116-0.838-2.792 0.298-3.63 1.05-0.471 0.425 0.268 1.402-0.379 1.675-1.052 0.446-2.425 0.804-3.511 0.285-0.592-0.283-0.958-0.977-1.63-1.101-0.464-0.084-0.37-0.214-0.37-0.734 0-0.876 0-1.754 0-2.631 0-0.364 0.101-0.221 0.432-0.316 1.303-0.374 0.534-2.07 1.825-2.091 1.497-0.025 0.019-2.576-0.386-3.096-0.227-0.292-0.453-0.423-0.7-0.482 5.295-6.638 13.444-10.903 22.576-10.903 8.311 0 15.809 3.534 21.082 9.173-1.552 1.686-3.22 3.605-4.354 4.456-0.778 0.583-1.786 0.937-2.655 1.371-0.867 0.435-2.043 0.202-2.993 0.202-0.247 0-3.165-0.04-3.165 0.036 0 0.865 0.433 2.625-0.402 3.044-0.997 0.498-2.116 0.878-2.909 1.669-0.225 0.225-1.146 0.867-0.881 1.133 0.001 0.001 0.002 0.002 0.004 0.003-0.145-0.078-0.294-0.128-0.449-0.123-1.129 0.038-2.53 0.086-3.514 0.708-0.624 0.394-0.455 0.99-0.538 1.645-0.094 0.736-0.325 1.515-0.854 2.06-0.632 0.652-0.531 0.759-0.531 1.817 1.119-0.124 2.24-0.249 3.362-0.372 0.132-0.018 0.955-0.022 0.955-0.169 0-0.278-0.157-1.22 0.034-1.411 0.424-0.424 0.853-0.853 1.28-1.28 0.259-0.259 0.73 0.48 0.942 0.693 0.39 0.389 0.771 0.472 0.357 0.882-0.391 0.394-0.784 0.787-1.175 1.178 0.174 0 1.437 0.047 1.44-0.033 0.051-1.074 0.701-2.108 1.438-2.845 0.796-0.796 1.887-0.805 2.745-0.117 0.347 0.28 0.134 1.179 0.134 1.556 0 0.253-0.07 2.878 0.062 2.878 0.633 0 1.185 0.146 1.67-0.265 1.667-1.403 3.848-1.067 5.464-2.613 0.479 0.959 0.96 1.918 1.439 2.878-1.143 0.382-2.287 0.762-3.43 1.143-0.09 0.029-0.862 0.346-0.902 0.269-0.261-0.513-0.539-1.039-0.894-1.495-0.472-0.607-0.59-0.08-0.497 0.478 0.151 0.922 0.736 1.785 1.371 2.451 0.666 0.698 1.039 2.043 1.473 2.912-0.09-1.769 2.485 1.045 2.879 1.438 0.608-0.608 1.22-1.22 1.827-1.826 0.304-0.304 0.604-0.604 0.905-0.905 0.244-0.245-0.028-0.315-0.216-0.579-1.016-1.42 1.593-1.007 2.386-1.007 1.498 0 2.637 0.391 3.732 1.439C76.322 51.74 77.753 53.287 78.073 53.609z" data-fill-palette-color="accent"></path><path fill="#ffdc00" d="M52.289 37.419c-0.318 0.32-0.64 0.639-0.958 0.96-0.328 0.12-0.87 0.143-0.89 0.521-0.024 0.467-0.045 0.931-0.07 1.398 0.627-0.313 1.254-0.627 1.88-0.939C52.451 39.258 52.289 37.697 52.289 37.419z" data-fill-palette-color="accent"></path><path fill="#ffdc00" d="M55.143 35.98c0.357 0 0.984 0.2 0.984-0.225 0-0.009 0-0.019 0-0.027 0.069 0.137 0.193 0.223 0.386 0.241-0.115 0.484-0.241 0.968-0.386 1.451 0.438-0.438 0.874-0.875 1.313-1.314 0.294-0.294 0.125-1.03 0.125-1.42 0-0.068 0-0.137 0-0.206 0-0.938 0-1.878 0-2.817-0.027 0.055-0.075 0.144-0.132 0.248-0.018-0.203-0.027-0.402-0.048-0.607-0.056 0.337-0.111 0.671-0.167 1.006-0.368 0.688-0.897 1.733-1.092 2.534 0-0.121 0-0.242 0-0.363 0-0.938 0-1.878 0-2.817C55.836 32.244 53.612 35.98 55.143 35.98z" data-fill-palette-color="accent"></path><path fill="#ffdc00" d="M68.034 58.973c0.94-0.157 1.805-0.756 2.485-1.405-1.067-0.355-2.131-0.711-3.199-1.066-1.194-0.398-1.197-0.527-1.775-1.686-0.453-0.909-0.766-1.549-1.471-2.254-0.515-0.515-2.19-1.66-2.19-2.415 0-1.149 0.223-1.214-0.853-1.214-1.348 0-2.695 0-4.044 0-2.206 0-4.411 0-6.616 0-0.87 0.882-1.714 1.841-2.353 2.906-1.137 1.895 0.285 2.842 1.53 4.205 1.332 1.457 0.816 3.931 3.308 4.368 0.889 0.154 1.894 0.033 2.794 0.033 0.107 0 2.08-0.278 1.89-0.624 0.209 0.375 0.094 1.417 0.168 1.872 0.169 1.021 0.39 2.035 0.616 3.044 0.267 1.203 0.683 2.39 0.683 3.624 0 1.269 1.321 2.04 2.189 2.909 0.33 0.33 0.519 0.688 0.988 0.688 0.811 0 1.626 0 2.438 0 0.404 0-0.35-4.992 0.929-5.623 0.365-0.18 1.087 0.021 1.303-0.396 0.149-0.283-0.014-0.631 0.135-0.913 0.358-0.69 1.203-0.016 1.285-1.152 0.064-0.922-0.099-2.825-0.749-3.555C66.734 59.431 66.98 59.15 68.034 58.973z" data-fill-palette-color="accent"></path><path fill="#ffdc00" d="M46.035 28.767c-0.732-0.723-1.521-1.408-2.367-1.996-1.143-0.794-2.004-0.865-3.372-0.865-0.654 0-1.321-0.045-1.973 0.008-0.281 0.023-0.172 0.337-0.253 0.545-0.491 1.256-2.532 2.765-3.531 3.764 1.382 0 2.153 2.867 2.677 3.915 0.315 0.629 0.202 1.283 0.202 1.986 0 1.029-0.089 1.207 0.622 1.918 0.706 0.706 0.646 0.989 1.343 0.292 0.701-0.701 1.401-1.401 2.101-2.101 0.46-0.462 0.251-1.21 0.251-1.836 0-0.924-0.328-1.295 0.607-1.295 0.718 0 1.392 0.064 1.97-0.432 0.438-0.378 0.779-0.854 1.381-0.973 0.668-0.132 2.08-0.371 1.798-1.474C47.377 29.776 46.377 29.105 46.035 28.767z" data-fill-palette-color="accent"></path></svg></g></svg></g></svg></g><defs></defs></svg><rect width="395.52" height="75.44509189817003" fill="none" stroke="none" visibility="hidden"></rect></g></svg></g></svg>